<svg xmlns="http://www.w3.org/2000/svg" xmlns:xlink="http://www.w3.org/1999/xlink" contentStyleType="text/css" data-diagram-type="CLASS" height="622px" preserveAspectRatio="none" style="width:1053px;height:622px;background:#FFFFFF;" version="1.1" viewBox="0 0 1053 622" width="1053px" zoomAndPan="magnify"><defs/><g><!--cluster it.unimi.di.prog2.h14.member--><g class="cluster" data-entity="it.unimi.di.prog2.h14.member" data-source-line="10" data-uid="ent0002" id="cluster_it.unimi.di.prog2.h14.member"><path d="M16.5,166 L226.8412,166 A3.75,3.75 0 0 1 229.3412,168.5 L236.3412,191.0679 L1043.5,191.0679 A2.5,2.5 0 0 1 1046,193.5679 L1046,582.5 A2.5,2.5 0 0 1 1043.5,585 L16.5,585 A2.5,2.5 0 0 1 14,582.5 L14,168.5 A2.5,2.5 0 0 1 16.5,166" fill="none" style="stroke:#000000;stroke-width:1.5;"/><line style="stroke:#000000;stroke-width:1.5;" x1="14" x2="236.3412" y1="191.0679" y2="191.0679"/><text fill="#000000" font-family="sans-serif" font-size="14" font-weight="bold" lengthAdjust="spacing" textLength="209.3412" x="18" y="182.9659">it.unimi.di.prog2.h14.member</text></g><!--cluster java.lang--><g class="cluster" data-entity="java.lang" data-source-line="61" data-uid="ent0010" id="cluster_java.lang"><path d="M214.5,4 L279.4238,4 A3.75,3.75 0 0 1 281.9238,6.5 L288.9238,29.0679 L489.5,29.0679 A2.5,2.5 0 0 1 492,31.5679 L492,144.5 A2.5,2.5 0 0 1 489.5,147 L214.5,147 A2.5,2.5 0 0 1 212,144.5 L212,6.5 A2.5,2.5 0 0 1 214.5,4" fill="none" style="stroke:#000000;stroke-width:1.5;"/><line style="stroke:#000000;stroke-width:1.5;" x1="212" x2="288.9238" y1="29.0679" y2="29.0679"/><text fill="#000000" font-family="sans-serif" font-size="14" font-weight="bold" lengthAdjust="spacing" textLength="63.9238" x="216" y="20.9659">java.lang</text></g><!--class BookClient--><g class="entity" data-entity="BookClient" data-source-line="12" data-uid="ent0003" id="entity_BookClient"><a href="BookClient.html" target="_top" title="BookClient.html" xlink:actuate="onRequest" xlink:href="BookClient.html" xlink:show="new" xlink:title="BookClient.html" xlink:type="simple"><rect fill="#F1F1F1" height="67.0679" rx="2.5" ry="2.5" style="stroke:#181818;stroke-width:0.5;" width="151.4115" x="886.5" y="253"/><ellipse cx="923.1998" cy="269" fill="#ADD1B2" rx="11" ry="11" style="stroke:#181818;stroke-width:1;"/><path d="M926.1686,274.6406 Q925.5904,274.9375 924.9498,275.0781 Q924.3092,275.2344 923.6061,275.2344 Q921.1061,275.2344 919.7779,273.5938 Q918.4654,271.9375 918.4654,268.8125 Q918.4654,265.6875 919.7779,264.0313 Q921.1061,262.375 923.6061,262.375 Q924.3092,262.375 924.9498,262.5313 Q925.6061,262.6875 926.1686,262.9844 L926.1686,265.7031 Q925.5436,265.125 924.9498,264.8594 Q924.3561,264.5781 923.7311,264.5781 Q922.3873,264.5781 921.6998,265.6563 Q921.0123,266.7188 921.0123,268.8125 Q921.0123,270.9063 921.6998,271.9844 Q922.3873,273.0469 923.7311,273.0469 Q924.3561,273.0469 924.9498,272.7813 Q925.5436,272.5 926.1686,271.9219 L926.1686,274.6406 Z " fill="#000000"/><text fill="#000000" font-family="sans-serif" font-size="14" lengthAdjust="spacing" textLength="71.1897" x="942.022" y="274.432">BookClient</text><line style="stroke:#181818;stroke-width:0.5;" x1="887.5" x2="1036.9115" y1="285" y2="285"/><line style="stroke:#181818;stroke-width:0.5;" x1="887.5" x2="1036.9115" y1="293" y2="293"/><ellipse cx="897.5" cy="308.034" fill="#84BE84" rx="3" ry="3" style="stroke:#038048;stroke-width:1;"/><text fill="#000000" font-family="sans-serif" font-size="14" lengthAdjust="spacing" text-decoration="underline" textLength="125.4115" x="906.5" y="311.9659">main(String[]): void</text></a></g><!--class WatchClient--><g class="entity" data-entity="WatchClient" data-source-line="16" data-uid="ent0004" id="entity_WatchClient"><a href="WatchClient.html" target="_top" title="WatchClient.html" xlink:actuate="onRequest" xlink:href="WatchClient.html" xlink:show="new" xlink:title="WatchClient.html" xlink:type="simple"><rect fill="#F1F1F1" height="67.0679" rx="2.5" ry="2.5" style="stroke:#181818;stroke-width:0.5;" width="151.4115" x="717.5" y="253"/><ellipse cx="750.697" cy="269" fill="#ADD1B2" rx="11" ry="11" style="stroke:#181818;stroke-width:1;"/><path d="M753.6658,274.6406 Q753.0877,274.9375 752.447,275.0781 Q751.8064,275.2344 751.1033,275.2344 Q748.6033,275.2344 747.2752,273.5938 Q745.9627,271.9375 745.9627,268.8125 Q745.9627,265.6875 747.2752,264.0313 Q748.6033,262.375 751.1033,262.375 Q751.8064,262.375 752.447,262.5313 Q753.1033,262.6875 753.6658,262.9844 L753.6658,265.7031 Q753.0408,265.125 752.447,264.8594 Q751.8533,264.5781 751.2283,264.5781 Q749.8845,264.5781 749.197,265.6563 Q748.5095,266.7188 748.5095,268.8125 Q748.5095,270.9063 749.197,271.9844 Q749.8845,273.0469 751.2283,273.0469 Q751.8533,273.0469 752.447,272.7813 Q753.0408,272.5 753.6658,271.9219 L753.6658,274.6406 Z " fill="#000000"/><text fill="#000000" font-family="sans-serif" font-size="14" lengthAdjust="spacing" textLength="78.9737" x="768.7408" y="274.432">WatchClient</text><line style="stroke:#181818;stroke-width:0.5;" x1="718.5" x2="867.9115" y1="285" y2="285"/><line style="stroke:#181818;stroke-width:0.5;" x1="718.5" x2="867.9115" y1="293" y2="293"/><ellipse cx="728.5" cy="308.034" fill="#84BE84" rx="3" ry="3" style="stroke:#038048;stroke-width:1;"/><text fill="#000000" font-family="sans-serif" font-size="14" lengthAdjust="spacing" text-decoration="underline" textLength="125.4115" x="737.5" y="311.9659">main(String[]): void</text></a></g><!--class Watch--><g class="entity" data-entity="Watch" data-source-line="20" data-uid="ent0005" id="entity_Watch"><a href="Watch.html" target="_top" title="Watch.html" xlink:actuate="onRequest" xlink:href="Watch.html" xlink:show="new" xlink:title="Watch.html" xlink:type="simple"><rect fill="#F1F1F1" height="124.2717" rx="2.5" ry="2.5" style="stroke:#181818;stroke-width:0.5;" width="192.9353" x="22.5" y="224.5"/><ellipse cx="94.0678" cy="240.5" fill="#ADD1B2" rx="11" ry="11" style="stroke:#181818;stroke-width:1;"/><path d="M97.0365,246.1406 Q96.4584,246.4375 95.8178,246.5781 Q95.1771,246.7344 94.474,246.7344 Q91.974,246.7344 90.6459,245.0938 Q89.3334,243.4375 89.3334,240.3125 Q89.3334,237.1875 90.6459,235.5313 Q91.974,233.875 94.474,233.875 Q95.1771,233.875 95.8178,234.0313 Q96.474,234.1875 97.0365,234.4844 L97.0365,237.2031 Q96.4115,236.625 95.8178,236.3594 Q95.224,236.0781 94.599,236.0781 Q93.2553,236.0781 92.5678,237.1563 Q91.8803,238.2188 91.8803,240.3125 Q91.8803,242.4063 92.5678,243.4844 Q93.2553,244.5469 94.599,244.5469 Q95.224,244.5469 95.8178,244.2813 Q96.4115,244 97.0365,243.4219 L97.0365,246.1406 Z " fill="#000000"/><text fill="#000000" font-family="sans-serif" font-size="14" lengthAdjust="spacing" textLength="41.2998" x="114.5678" y="245.932">Watch</text><line style="stroke:#181818;stroke-width:0.5;" x1="23.5" x2="214.4353" y1="256.5" y2="256.5"/><ellipse cx="33.5" cy="271.534" fill="none" rx="3" ry="3" style="stroke:#038048;stroke-width:1;"/><text fill="#000000" font-family="sans-serif" font-size="14" lengthAdjust="spacing" textLength="88.4657" x="42.5" y="275.4659">model: String</text><line style="stroke:#181818;stroke-width:0.5;" x1="23.5" x2="214.4353" y1="283.5679" y2="283.5679"/><ellipse cx="33.5" cy="298.6019" fill="#84BE84" rx="3" ry="3" style="stroke:#038048;stroke-width:1;"/><text fill="#000000" font-family="sans-serif" font-size="14" lengthAdjust="spacing" textLength="166.9353" x="42.5" y="302.5339">Watch(String, List&lt;Gear&gt;)</text><ellipse cx="33.5" cy="317.6698" fill="#84BE84" rx="3" ry="3" style="stroke:#038048;stroke-width:1;"/><text fill="#000000" font-family="sans-serif" font-size="14" lengthAdjust="spacing" textLength="66.4577" x="42.5" y="321.6018">tick(): void</text><ellipse cx="33.5" cy="336.7377" fill="#84BE84" rx="3" ry="3" style="stroke:#038048;stroke-width:1;"/><text fill="#000000" font-family="sans-serif" font-size="14" lengthAdjust="spacing" textLength="163.6734" x="42.5" y="340.6697">iterator(): Iterator&lt;Gear&gt;</text></a></g><!--class Watch.Gear--><g class="entity" data-entity="Watch.Gear" data-source-line="27" data-uid="ent0006" id="entity_Watch.Gear"><a href="Watch.Gear.html" target="_top" title="Watch.Gear.html" xlink:actuate="onRequest" xlink:href="Watch.Gear.html" xlink:show="new" xlink:title="Watch.Gear.html" xlink:type="simple"><rect fill="#F1F1F1" height="143.3396" rx="2.5" ry="2.5" style="stroke:#181818;stroke-width:0.5;" width="139.0356" x="49.5" y="434"/><ellipse cx="78.1169" cy="450" fill="#ADD1B2" rx="11" ry="11" style="stroke:#181818;stroke-width:1;"/><path d="M81.0857,455.6406 Q80.5076,455.9375 79.8669,456.0781 Q79.2263,456.2344 78.5232,456.2344 Q76.0232,456.2344 74.6951,454.5938 Q73.3826,452.9375 73.3826,449.8125 Q73.3826,446.6875 74.6951,445.0313 Q76.0232,443.375 78.5232,443.375 Q79.2263,443.375 79.8669,443.5313 Q80.5232,443.6875 81.0857,443.9844 L81.0857,446.7031 Q80.4607,446.125 79.8669,445.8594 Q79.2732,445.5781 78.6482,445.5781 Q77.3044,445.5781 76.6169,446.6563 Q75.9294,447.7188 75.9294,449.8125 Q75.9294,451.9063 76.6169,452.9844 Q77.3044,454.0469 78.6482,454.0469 Q79.2732,454.0469 79.8669,453.7813 Q80.4607,453.5 81.0857,452.9219 L81.0857,455.6406 Z " fill="#000000"/><text fill="#000000" font-family="sans-serif" font-size="14" lengthAdjust="spacing" textLength="76.7757" x="95.1429" y="455.432">Watch.Gear</text><line style="stroke:#181818;stroke-width:0.5;" x1="50.5" x2="187.5356" y1="466" y2="466"/><rect fill="none" height="6" style="stroke:#C82930;stroke-width:1;" width="6" x="57.5" y="478.034"/><text fill="#000000" font-family="sans-serif" font-size="14" lengthAdjust="spacing" textLength="113.0356" x="69.5" y="484.9659">diameter: double</text><rect fill="none" height="6" style="stroke:#C82930;stroke-width:1;" width="6" x="57.5" y="497.1019"/><text fill="#000000" font-family="sans-serif" font-size="14" lengthAdjust="spacing" textLength="84.3637" x="69.5" y="504.0339">rotations: int</text><line style="stroke:#181818;stroke-width:0.5;" x1="50.5" x2="187.5356" y1="512.1358" y2="512.1358"/><ellipse cx="60.5" cy="527.1698" fill="#84BE84" rx="3" ry="3" style="stroke:#038048;stroke-width:1;"/><text fill="#000000" font-family="sans-serif" font-size="14" lengthAdjust="spacing" textLength="85.9737" x="69.5" y="531.1018">Gear(double)</text><ellipse cx="60.5" cy="546.2377" fill="#84BE84" rx="3" ry="3" style="stroke:#038048;stroke-width:1;"/><text fill="#000000" font-family="sans-serif" font-size="14" lengthAdjust="spacing" textLength="66.4577" x="69.5" y="550.1697">tick(): void</text><ellipse cx="60.5" cy="565.3056" fill="#84BE84" rx="3" ry="3" style="stroke:#038048;stroke-width:1;"/><text fill="#000000" font-family="sans-serif" font-size="14" lengthAdjust="spacing" textLength="92.7637" x="69.5" y="569.2376">rotations(): int</text></a></g><!--class GuestList--><g class="entity" data-entity="GuestList" data-source-line="35" data-uid="ent0007" id="entity_GuestList"><a href="GuestList.html" target="_top" title="GuestList.html" xlink:actuate="onRequest" xlink:href="GuestList.html" xlink:show="new" xlink:title="GuestList.html" xlink:type="simple"><rect fill="#F1F1F1" height="181.4754" rx="2.5" ry="2.5" style="stroke:#181818;stroke-width:0.5;" width="236.3352" x="234" y="196"/><ellipse cx="317.3137" cy="212" fill="#ADD1B2" rx="11" ry="11" style="stroke:#181818;stroke-width:1;"/><path d="M320.2825,217.6406 Q319.7044,217.9375 319.0637,218.0781 Q318.4231,218.2344 317.72,218.2344 Q315.22,218.2344 313.8919,216.5938 Q312.5794,214.9375 312.5794,211.8125 Q312.5794,208.6875 313.8919,207.0313 Q315.22,205.375 317.72,205.375 Q318.4231,205.375 319.0637,205.5313 Q319.72,205.6875 320.2825,205.9844 L320.2825,208.7031 Q319.6575,208.125 319.0637,207.8594 Q318.47,207.5781 317.845,207.5781 Q316.5012,207.5781 315.8137,208.6563 Q315.1262,209.7188 315.1262,211.8125 Q315.1262,213.9063 315.8137,214.9844 Q316.5012,216.0469 317.845,216.0469 Q318.47,216.0469 319.0637,215.7813 Q319.6575,215.5 320.2825,214.9219 L320.2825,217.6406 Z " fill="#000000"/><text fill="#000000" font-family="sans-serif" font-size="14" lengthAdjust="spacing" textLength="61.2078" x="337.8137" y="217.432">GuestList</text><line style="stroke:#181818;stroke-width:0.5;" x1="235" x2="469.3352" y1="228" y2="228"/><rect fill="none" height="6" style="stroke:#C82930;stroke-width:1;" width="6" x="242" y="240.034"/><text fill="#000000" font-family="sans-serif" font-size="14" lengthAdjust="spacing" textLength="129.1355" x="254" y="246.9659">guests: List&lt;String&gt;</text><rect fill="none" height="6" style="stroke:#C82930;stroke-width:1;" width="6" x="242" y="259.1019"/><text fill="#000000" font-family="sans-serif" font-size="14" lengthAdjust="spacing" textLength="78.2737" x="254" y="266.0339">capacity: int</text><line style="stroke:#181818;stroke-width:0.5;" x1="235" x2="469.3352" y1="274.1358" y2="274.1358"/><ellipse cx="245" cy="289.1698" fill="#84BE84" rx="3" ry="3" style="stroke:#038048;stroke-width:1;"/><text fill="#000000" font-family="sans-serif" font-size="14" lengthAdjust="spacing" textLength="86.9257" x="254" y="293.1018">GuestList(int)</text><ellipse cx="245" cy="308.2377" fill="#84BE84" rx="3" ry="3" style="stroke:#038048;stroke-width:1;"/><text fill="#000000" font-family="sans-serif" font-size="14" lengthAdjust="spacing" textLength="172.4373" x="254" y="312.1697">GuestList(List&lt;String&gt;, int)</text><ellipse cx="245" cy="327.3056" fill="#84BE84" rx="3" ry="3" style="stroke:#038048;stroke-width:1;"/><text fill="#000000" font-family="sans-serif" font-size="14" lengthAdjust="spacing" textLength="118.9295" x="254" y="331.2376">invite(String): void</text><ellipse cx="245" cy="346.3735" fill="#84BE84" rx="3" ry="3" style="stroke:#038048;stroke-width:1;"/><text fill="#000000" font-family="sans-serif" font-size="14" lengthAdjust="spacing" textLength="171.3454" x="254" y="350.3055">iterator(): Iterator&lt;String&gt;</text><ellipse cx="245" cy="365.4415" fill="#84BE84" rx="3" ry="3" style="stroke:#038048;stroke-width:1;"/><text fill="#000000" font-family="sans-serif" font-size="14" lengthAdjust="spacing" textLength="210.3352" x="254" y="369.3734">firstGuests(int): Iterator&lt;String&gt;</text></a></g><!--class Book--><g class="entity" data-entity="Book" data-source-line="45" data-uid="ent0008" id="entity_Book"><a href="Book.html" target="_top" title="Book.html" xlink:actuate="onRequest" xlink:href="Book.html" xlink:show="new" xlink:title="Book.html" xlink:type="simple"><rect fill="#F1F1F1" height="124.2717" rx="2.5" ry="2.5" style="stroke:#181818;stroke-width:0.5;" width="210.6453" x="488.5" y="224.5"/><ellipse cx="572.8147" cy="240.5" fill="#ADD1B2" rx="11" ry="11" style="stroke:#181818;stroke-width:1;"/><path d="M575.7835,246.1406 Q575.2054,246.4375 574.5647,246.5781 Q573.9241,246.7344 573.221,246.7344 Q570.721,246.7344 569.3929,245.0938 Q568.0804,243.4375 568.0804,240.3125 Q568.0804,237.1875 569.3929,235.5313 Q570.721,233.875 573.221,233.875 Q573.9241,233.875 574.5647,234.0313 Q575.221,234.1875 575.7835,234.4844 L575.7835,237.2031 Q575.1585,236.625 574.5647,236.3594 Q573.971,236.0781 573.346,236.0781 Q572.0022,236.0781 571.3147,237.1563 Q570.6272,238.2188 570.6272,240.3125 Q570.6272,242.4063 571.3147,243.4844 Q572.0022,244.5469 573.346,244.5469 Q573.971,244.5469 574.5647,244.2813 Q575.1585,244 575.7835,243.4219 L575.7835,246.1406 Z " fill="#000000"/><text fill="#000000" font-family="sans-serif" font-size="14" lengthAdjust="spacing" textLength="33.5159" x="593.3147" y="245.932">Book</text><line style="stroke:#181818;stroke-width:0.5;" x1="489.5" x2="698.1453" y1="256.5" y2="256.5"/><rect fill="none" height="6" style="stroke:#C82930;stroke-width:1;" width="6" x="496.5" y="268.534"/><text fill="#000000" font-family="sans-serif" font-size="14" lengthAdjust="spacing" textLength="72.0157" x="508.5" y="275.4659">title: String</text><line style="stroke:#181818;stroke-width:0.5;" x1="489.5" x2="698.1453" y1="283.5679" y2="283.5679"/><ellipse cx="499.5" cy="298.6019" fill="#84BE84" rx="3" ry="3" style="stroke:#038048;stroke-width:1;"/><text fill="#000000" font-family="sans-serif" font-size="14" lengthAdjust="spacing" textLength="81.3117" x="508.5" y="302.5339">Book(String)</text><ellipse cx="499.5" cy="317.6698" fill="#84BE84" rx="3" ry="3" style="stroke:#038048;stroke-width:1;"/><text fill="#000000" font-family="sans-serif" font-size="14" lengthAdjust="spacing" textLength="160.7614" x="508.5" y="321.6018">addChapter(String): void</text><ellipse cx="499.5" cy="336.7377" fill="#84BE84" rx="3" ry="3" style="stroke:#038048;stroke-width:1;"/><text fill="#000000" font-family="sans-serif" font-size="14" lengthAdjust="spacing" textLength="184.6453" x="508.5" y="340.6697">iterator(): Iterator&lt;Chapter&gt;</text></a></g><!--class Book.Chapter--><g class="entity" data-entity="Book.Chapter" data-source-line="52" data-uid="ent0009" id="entity_Book.Chapter"><a href="Book.Chapter.html" target="_top" title="Book.Chapter.html" xlink:actuate="onRequest" xlink:href="Book.Chapter.html" xlink:show="new" xlink:title="Book.Chapter.html" xlink:type="simple"><rect fill="#F1F1F1" height="124.2717" rx="2.5" ry="2.5" style="stroke:#181818;stroke-width:0.5;" width="126.4916" x="530" y="443.5"/><ellipse cx="547.0376" cy="459.5" fill="#ADD1B2" rx="11" ry="11" style="stroke:#181818;stroke-width:1;"/><path d="M550.0063,465.1406 Q549.4282,465.4375 548.7876,465.5781 Q548.147,465.7344 547.4438,465.7344 Q544.9438,465.7344 543.6157,464.0938 Q542.3032,462.4375 542.3032,459.3125 Q542.3032,456.1875 543.6157,454.5313 Q544.9438,452.875 547.4438,452.875 Q548.147,452.875 548.7876,453.0313 Q549.4438,453.1875 550.0063,453.4844 L550.0063,456.2031 Q549.3813,455.625 548.7876,455.3594 Q548.1938,455.0781 547.5688,455.0781 Q546.2251,455.0781 545.5376,456.1563 Q544.8501,457.2188 544.8501,459.3125 Q544.8501,461.4063 545.5376,462.4844 Q546.2251,463.5469 547.5688,463.5469 Q548.1938,463.5469 548.7876,463.2813 Q549.3813,463 550.0063,462.4219 L550.0063,465.1406 Z " fill="#000000"/><text fill="#000000" font-family="sans-serif" font-size="14" lengthAdjust="spacing" textLength="89.9637" x="561.4904" y="464.932">Book.Chapter</text><line style="stroke:#181818;stroke-width:0.5;" x1="531" x2="655.4916" y1="475.5" y2="475.5"/><rect fill="none" height="6" style="stroke:#C82930;stroke-width:1;" width="6" x="538" y="487.534"/><text fill="#000000" font-family="sans-serif" font-size="14" lengthAdjust="spacing" textLength="72.0157" x="550" y="494.4659">title: String</text><line style="stroke:#181818;stroke-width:0.5;" x1="531" x2="655.4916" y1="502.5679" y2="502.5679"/><rect fill="#F24D5C" height="6" style="stroke:#C82930;stroke-width:1;" width="6" x="538" y="514.6019"/><text fill="#000000" font-family="sans-serif" font-size="14" lengthAdjust="spacing" textLength="100.4916" x="550" y="521.5339">Chapter(String)</text><ellipse cx="541" cy="536.6698" fill="#84BE84" rx="3" ry="3" style="stroke:#038048;stroke-width:1;"/><text fill="#000000" font-family="sans-serif" font-size="14" lengthAdjust="spacing" textLength="80.4157" x="550" y="540.6018">title(): String</text><ellipse cx="541" cy="555.7377" fill="#84BE84" rx="3" ry="3" style="stroke:#038048;stroke-width:1;"/><text fill="#000000" font-family="sans-serif" font-size="14" lengthAdjust="spacing" textLength="82.3337" x="550" y="559.6697">book(): Book</text></a></g><!--class Iterable--><g class="entity" data-entity="Iterable" data-source-line="62" data-uid="ent0011" id="entity_Iterable"><a href="https://docs.oracle.com/en/java/javase/25/docs/api/java.base/java/lang/Iterable.html?is-external=true" target="_top" title="https://docs.oracle.com/en/java/javase/25/docs/api/java.base/java/lang/Iterable.html?is-external=true" xlink:actuate="onRequest" xlink:href="https://docs.oracle.com/en/java/javase/25/docs/api/java.base/java/lang/Iterable.html?is-external=true" xlink:show="new" xlink:title="https://docs.oracle.com/en/java/javase/25/docs/api/java.base/java/lang/Iterable.html?is-external=true" xlink:type="simple"><rect fill="#F1F1F1" height="105.2038" rx="2.5" ry="2.5" style="stroke:#181818;stroke-width:0.5;" width="262.5711" x="220.5" y="34"/><ellipse cx="318.3306" cy="50" fill="#B4A7E5" rx="11" ry="11" style="stroke:#181818;stroke-width:1;"/><path d="M314.2525,45.7656 L314.2525,43.6094 L321.6431,43.6094 L321.6431,45.7656 L319.1744,45.7656 L319.1744,53.8438 L321.6431,53.8438 L321.6431,56 L314.2525,56 L314.2525,53.8438 L316.7212,53.8438 L316.7212,45.7656 L314.2525,45.7656 Z " fill="#000000"/><text fill="#000000" font-family="sans-serif" font-size="14" font-style="italic" lengthAdjust="spacing" textLength="48.3978" x="338.8306" y="55.432">Iterable</text><rect fill="#FFFFFF" height="18.3441" style="stroke:#181818;stroke-width:1;stroke-dasharray:2,2;" width="8.012" x="478.059" y="31"/><text fill="#000000" font-family="sans-serif" font-size="12" font-style="italic" lengthAdjust="spacing" textLength="6.012" x="479.059" y="44.8281">T</text><line style="stroke:#181818;stroke-width:0.5;" x1="221.5" x2="482.0711" y1="66" y2="66"/><line style="stroke:#181818;stroke-width:0.5;" x1="221.5" x2="482.0711" y1="74" y2="74"/><ellipse cx="231.5" cy="89.034" fill="#84BE84" rx="3" ry="3" style="stroke:#038048;stroke-width:1;"/><text fill="#000000" font-family="sans-serif" font-size="14" font-style="italic" lengthAdjust="spacing" textLength="133.0415" x="240.5" y="92.9659">iterator(): Iterator&lt;T&gt;</text><ellipse cx="231.5" cy="108.1019" fill="#84BE84" rx="3" ry="3" style="stroke:#038048;stroke-width:1;"/><text fill="#000000" font-family="sans-serif" font-size="14" lengthAdjust="spacing" textLength="236.5711" x="240.5" y="112.0339">forEach(Consumer&lt;? super T&gt;): void</text><ellipse cx="231.5" cy="127.1698" fill="#84BE84" rx="3" ry="3" style="stroke:#038048;stroke-width:1;"/><text fill="#000000" font-family="sans-serif" font-size="14" lengthAdjust="spacing" textLength="177.4353" x="240.5" y="131.1018">spliterator(): Spliterator&lt;T&gt;</text></a></g><g class="link" data-entity-1="Iterable" data-entity-2="Watch" data-uid="lnk12" id="link_Iterable_Watch"><polygon fill="none" points="261.2456,139.0396,242.9534,144.0792,249.6356,154.0465,261.2456,139.0396" style="stroke:#181818;stroke-width:1;"/><path d="M246.2945,149.0629 C233.7019,157.5051 236.2068,156.5719 225,166 C204.5214,183.2283 184.4198,204.4483 167.3209,224.2025" fill="none" style="stroke:#181818;stroke-width:1;stroke-dasharray:7,7;"/></g><g class="link" data-entity-1="Watch" data-entity-2="Watch.Gear" data-uid="lnk13" id="link_Watch_Watch.Gear"><polygon fill="#181818" points="100.6801,433.7524,103.0161,424.1846,99.7911,428.8321,95.1436,425.6071,100.6801,433.7524" style="stroke:#181818;stroke-width:1;"/><path d="M101.9339,348.7804 C97.8992,370.0093 95.4253,393.9973 98,416 C98.6791,421.8032 98.5337,421.8731 99.6133,427.848" fill="none" style="stroke:#181818;stroke-width:1;"/><text fill="#000000" font-family="sans-serif" font-size="13" lengthAdjust="spacing" textLength="34.216" x="100" y="410.897">gears</text><text fill="#000000" font-family="sans-serif" font-size="13" lengthAdjust="spacing" textLength="7.163" x="92.6801" y="429.6494">*</text></g><g class="link" data-entity-1="Watch" data-entity-2="Watch.Gear" data-uid="lnk14" id="link_Watch_Watch.Gear"><ellipse cx="133.9939" cy="356.4172" fill="#FFFFFF" rx="8" ry="8" style="stroke:#181818;stroke-width:1;"/><line style="stroke:#181818;stroke-width:1;" x1="135.2166" x2="132.7713" y1="364.3232" y2="348.5112"/><line style="stroke:#181818;stroke-width:1;" x1="126.0879" x2="141.8999" y1="357.6399" y2="355.1945"/><path d="M135.2166,364.3232 C138.5128,385.6366 138.1001,393.9339 136,416 C135.4515,421.7628 134.7065,427.7085 133.8331,433.6638" fill="none" style="stroke:#181818;stroke-width:1;"/></g><g class="link" data-entity-1="Iterable" data-entity-2="GuestList" data-uid="lnk15" id="link_Iterable_GuestList"><polygon fill="none" points="352,139.0053,346,157.0053,358,157.0053,352,139.0053" style="stroke:#181818;stroke-width:1;"/><path d="M352,157.0053 C352,174.4219 352,176.4087 352,195.9046" fill="none" style="stroke:#181818;stroke-width:1;stroke-dasharray:7,7;"/></g><g class="link" data-entity-1="Iterable" data-entity-2="Book" data-uid="lnk16" id="link_Iterable_Book"><polygon fill="none" points="441.7385,139.0131,453.4439,153.9458,460.0624,143.936,441.7385,139.0131" style="stroke:#181818;stroke-width:1;"/><path d="M456.7532,148.9409 C469.6223,157.45 467.4024,156.6386 479,166 C500.6206,183.4518 522.282,204.7268 540.8814,224.4628" fill="none" style="stroke:#181818;stroke-width:1;stroke-dasharray:7,7;"/></g><g class="link" data-entity-1="Book" data-entity-2="Book.Chapter" data-uid="lnk17" id="link_Book_Book.Chapter"><polygon fill="#181818" points="569.3849,443.2655,570.6971,433.5044,567.9811,438.4666,563.0189,435.7506,569.3849,443.2655" style="stroke:#181818;stroke-width:1;"/><path d="M568.9694,348.5659 C563.0265,369.7776 559.3412,393.8096 563,416 C564.478,424.964 565.0603,428.4825 567.7003,437.5068" fill="none" style="stroke:#181818;stroke-width:1;"/><text fill="#000000" font-family="sans-serif" font-size="13" lengthAdjust="spacing" textLength="53.183" x="565" y="410.897">chapters</text><text fill="#000000" font-family="sans-serif" font-size="13" lengthAdjust="spacing" textLength="7.163" x="561.3849" y="439.1625">*</text></g><g class="link" data-entity-1="Book" data-entity-2="Book.Chapter" data-uid="lnk18" id="link_Book_Book.Chapter"><ellipse cx="617.083" cy="356.4993" fill="#FFFFFF" rx="8" ry="8" style="stroke:#181818;stroke-width:1;"/><line style="stroke:#181818;stroke-width:1;" x1="618.9191" x2="615.2469" y1="364.2858" y2="348.7129"/><line style="stroke:#181818;stroke-width:1;" x1="609.2965" x2="624.8694" y1="358.3354" y2="354.6632"/><path d="M618.9191,364.2858 C623.9237,385.5092 623.2905,393.9382 620,416 C618.673,424.8973 616.6345,434.1368 614.2594,443.1432" fill="none" style="stroke:#181818;stroke-width:1;"/></g><g class="footer" data-source-line="83"><text fill="#888888" font-family="sans-serif" font-size="10" lengthAdjust="spacing" textLength="2.6" x="517.2" y="597.69">&#160;</text><a href="https://github.com/talsma-ict/umldoclet" target="_top" title="https://github.com/talsma-ict/umldoclet" xlink:actuate="onRequest" xlink:href="https://github.com/talsma-ict/umldoclet" xlink:show="new" xlink:title="https://github.com/talsma-ict/umldoclet" xlink:type="simple"><text fill="#888888" font-family="sans-serif" font-size="10" lengthAdjust="spacing" textLength="76.7199" x="480.14" y="611.31">UMLDoclet 2.2.3</text></a></g><!--SRC=[jLPHRzis47xlhxXr3tFcYBBS9Ei4pqNc5LcB31WQ5tl8_41BZCnP8ZNobDRe_Dzxf6HPTfp6HJ4_9ABk-DtttHsf0m3u0IQwN1cPBH1G0owaXVT_N0DNAMH22SDHf20BdWaBSv5hbTdQKG2lSA4Dw3k_IhGnmfPQfL9by9RVSx2wCecmxDapyA6c6_GFt7RGvoltyZUTv0AXDpdfK1eEeejWE1YUmvJdjk3mPZ9b3Tfspv0DsGiWx5mcGbc2h5GgZATrMVA4_btNbbEu5yPAhMZFeC5nKXEja4jbeUG6hPFqPyuLEguHS_7PJz2xlBdUvJRusNCxXKkZU9N2E_rlrShzhZGy8yOvN-aAmHO2kUBUP8cp5HIA8-KlZkiDH7H9QGQ9h5Aoa2oLh3Gw6x95TCOAKSn9qgVQr_sId5iBlsgzdEHIA8JRs-s2BR38PpFoXyxlaqMECbb3lo2rlHiqLAlRsKaCzrgchUjwFyXV79D56wMp-X_2R08SXkuNEXLv33NchiblQwATKiKjZgu4D-EJNJTYjkpjS_4MYSANn5dVDCyrn1EScNDgYRl5OVP1AZdrWJ0nfBgQvsBNQhJBcrOs1gbmbvi3xTMRZjRJuZbp5_61YYlgMtGP8n7jyoCQCcSdYZx1TRR7knu9frwMk3eaOmFU8zF9OxOkz2ayz9JgdchLbFhuKXuYsx-Jng8FRJsdB_Yl3ns-vjWzaYoKc8l3xUfsRIJiMdYQJXQy91fVBR7PzmHdrhXjk3VBhzOGxD7SRqpQvzWTKZztwidcuk-JNUzUYF_GjuJHTPnrY56bXBdZYQYbqwaOJSSaPu5OsZWCKvrOfWsdxmDBT14A5JeO_yUAS7ZkFK9UIl-ApTrRx-42XHjGdv5NqWRY8xrHFFy5JIKUNdXyRf62uVgHiaptcqwRr_HTwateS5Q5CADNOAkI2Z8T7worBVCkxirssOLUTxFNPYsEDsfWz1zZN_o-nB6_mZp04NuG16Du_kFpOtpzjHZJPvyRUpH-FmYEnluMrUtLyoqWRIi_xNPauhg7CuQaVh37ndWwULtykcj65bUvsBRKdTRenuvkE_w-ebQzbcevqJaDCD-_F6nzxuQmN2f1Sr-oL88kdy5Uhux2JhmcrjzgUumpYOjgxaym-W4ma0c6LP6dzUItDmFEPirCTzKEbsv02w8e64RJw2oEBcAIVnwT3IvUlZYxw0-YU32uVLqPNOhmdIx4x3C0]--></g></svg>