<svg xmlns="http://www.w3.org/2000/svg" xmlns:xlink="http://www.w3.org/1999/xlink" contentStyleType="text/css" data-diagram-type="CLASS" height="271px" preserveAspectRatio="none" style="width:187px;height:271px;background:#FFFFFF;" version="1.1" viewBox="0 0 187 271" width="187px" zoomAndPan="magnify"><defs/><g><!--class it.unimi.di.prog2.s12.BoundedIntQueue--><g class="entity" data-entity="it.unimi.di.prog2.s12.BoundedIntQueue" data-source-line="13" data-uid="ent0002" id="entity_it.unimi.di.prog2.s12.BoundedIntQueue"><a href="BoundedIntQueue.html" target="_top" title="BoundedIntQueue.html" xlink:actuate="onRequest" xlink:href="BoundedIntQueue.html" xlink:show="new" xlink:title="BoundedIntQueue.html" xlink:type="simple"><rect fill="#F1F1F1" height="230.2992" rx="2.5" ry="2.5" style="stroke:#181818;stroke-width:0.5;" width="174.1894" x="6" y="12"/><ellipse cx="29.8731" cy="33.344" fill="#ADD1B2" rx="11" ry="11" style="stroke:#181818;stroke-width:1;"/><path d="M32.8418,38.9846 Q32.2637,39.2815 31.6231,39.4221 Q30.9824,39.5783 30.2793,39.5783 Q27.7793,39.5783 26.4512,37.9377 Q25.1387,36.2815 25.1387,33.1565 Q25.1387,30.0315 26.4512,28.3752 Q27.7793,26.719 30.2793,26.719 Q30.9824,26.719 31.6231,26.8752 Q32.2793,27.0315 32.8418,27.3283 L32.8418,30.0471 Q32.2168,29.469 31.6231,29.2033 Q31.0293,28.9221 30.4043,28.9221 Q29.0606,28.9221 28.3731,30.0002 Q27.6856,31.0627 27.6856,33.1565 Q27.6856,35.2502 28.3731,36.3283 Q29.0606,37.3908 30.4043,37.3908 Q31.0293,37.3908 31.6231,37.1252 Q32.2168,36.844 32.8418,36.2658 L32.8418,38.9846 Z " fill="#000000"/><text fill="#000000" font-family="sans-serif" font-size="14" lengthAdjust="spacing" textLength="122.4715" x="45.8448" y="31.9659">BoundedIntQueue</text><text fill="#000000" font-family="sans-serif" font-size="10" lengthAdjust="spacing" textLength="96.9399" x="58.6106" y="46.7579">it.unimi.di.prog2.s12</text><line style="stroke:#181818;stroke-width:0.5;" x1="7" x2="179.1894" y1="54.6879" y2="54.6879"/><rect fill="none" height="6" style="stroke:#C82930;stroke-width:1;" width="6" x="14" y="66.7219"/><text fill="#000000" font-family="sans-serif" font-size="14" lengthAdjust="spacing" textLength="94.7236" x="26" y="73.6538">elements: int[]</text><rect fill="none" height="6" style="stroke:#C82930;stroke-width:1;" width="6" x="14" y="85.7898"/><text fill="#000000" font-family="sans-serif" font-size="14" lengthAdjust="spacing" textLength="57.7218" x="26" y="92.7218">head: int</text><rect fill="none" height="6" style="stroke:#C82930;stroke-width:1;" width="6" x="14" y="104.8577"/><text fill="#000000" font-family="sans-serif" font-size="14" lengthAdjust="spacing" textLength="44.8418" x="26" y="111.7897">tail: int</text><line style="stroke:#181818;stroke-width:0.5;" x1="7" x2="179.1894" y1="119.8917" y2="119.8917"/><ellipse cx="17" cy="134.9256" fill="#84BE84" rx="3" ry="3" style="stroke:#038048;stroke-width:1;"/><text fill="#000000" font-family="sans-serif" font-size="14" lengthAdjust="spacing" textLength="148.1894" x="26" y="138.8576">BoundedIntQueue(int)</text><ellipse cx="17" cy="153.9935" fill="#84BE84" rx="3" ry="3" style="stroke:#038048;stroke-width:1;"/><text fill="#000000" font-family="sans-serif" font-size="14" lengthAdjust="spacing" textLength="121.3515" x="26" y="157.9255">isEmpty(): boolean</text><ellipse cx="17" cy="173.0614" fill="#84BE84" rx="3" ry="3" style="stroke:#038048;stroke-width:1;"/><text fill="#000000" font-family="sans-serif" font-size="14" lengthAdjust="spacing" textLength="102.8156" x="26" y="176.9934">isFull(): boolean</text><ellipse cx="17" cy="192.1294" fill="#84BE84" rx="3" ry="3" style="stroke:#038048;stroke-width:1;"/><text fill="#000000" font-family="sans-serif" font-size="14" lengthAdjust="spacing" textLength="57.9038" x="26" y="196.0613">size(): int</text><ellipse cx="17" cy="211.1973" fill="#84BE84" rx="3" ry="3" style="stroke:#038048;stroke-width:1;"/><text fill="#000000" font-family="sans-serif" font-size="14" lengthAdjust="spacing" textLength="119.1675" x="26" y="215.1293">enqueue(int): void</text><ellipse cx="17" cy="230.2652" fill="#84BE84" rx="3" ry="3" style="stroke:#038048;stroke-width:1;"/><text fill="#000000" font-family="sans-serif" font-size="14" lengthAdjust="spacing" textLength="91.3216" x="26" y="234.1972">dequeue(): int</text></a></g><g class="footer" data-source-line="31"><text fill="#888888" font-family="sans-serif" font-size="10" lengthAdjust="spacing" textLength="2.6" x="88.2" y="246.69">&#160;</text><a href="https://github.com/talsma-ict/umldoclet" target="_top" title="https://github.com/talsma-ict/umldoclet" xlink:actuate="onRequest" xlink:href="https://github.com/talsma-ict/umldoclet" xlink:show="new" xlink:title="https://github.com/talsma-ict/umldoclet" xlink:type="simple"><text fill="#888888" font-family="sans-serif" font-size="10" lengthAdjust="spacing" textLength="76.7199" x="51.14" y="260.31">UMLDoclet 2.2.3</text></a></g><!--SRC=[RLDTJzim57tdLzonXnL1tII5ReiG4klOnjH96vIdqWStlYGMpdNmHwTkuh_FJhgsLFWboZdsEUTU-m80l8EnRbP6bfK3fy5LqiBTZmbm4b0YeU4E1SYQbsXXWKfJQRkD2DoxIXlG3-rVeOr1ssWIaahupfSShFQcGCiE3g2rclvN_ytjZlfY5S7Fkb3ee3S-secK9UcedoNP6KoviZM7w_6KhTMsPpAMiI44RIKB91iaFGaqRQpBXXVXC-cO4rYYiL9JE9EiTMAfXIR79Lbek74sblHJSN8nQygYFtiFlSlRoSjioSSssmbS6k9Um8r-yfjotpI6bo6nuYlj7TWQ7IVUSJQ49bw7Tl42Rp6OSXSwIPgmvIif4B1kt0eU92fXzz4WLka0jtYXkBLmU6xb7ypJqujFEfOlhidzykZndjPCSY4TyoHhoOHaZT5bncoQ7KAuZLSPjgS4izaUmYfNg_aS_hP1ukgZmXh9sHmakTbyIrJ8HGjkeT1pzH8wtZFe1V9eoqfx5Ull7UMmq5eXfrtkYrVgLIhM7uaNJaXF6uSSbbgABIUmutREF7VDFhTkfV1Yi_L1QnUUshO1SNrRDMWcaXx7MeLxVVlXTVOklb8b2SDW58-4uHQJpSxdpcwmuxVskgVPh7AkiVbWK4fN-GKhT3rmxOJqPU46lbQY6usz8PdFru_-wsRwuWlkfsa_IwVfQPwEylIC9TdmR3WSdOwEapHFajcLDxh1mOskSVuF]--></g></svg>