<svg xmlns="http://www.w3.org/2000/svg" xmlns:xlink="http://www.w3.org/1999/xlink" contentStyleType="text/css" data-diagram-type="CLASS" height="233px" preserveAspectRatio="none" style="width:151px;height:233px;background:#FFFFFF;" version="1.1" viewBox="0 0 151 233" width="151px" zoomAndPan="magnify"><defs/><g><!--class it.unimi.di.prog2.h10.ListIntSet--><g class="entity" data-entity="it.unimi.di.prog2.h10.ListIntSet" data-source-line="13" data-uid="ent0002" id="entity_it.unimi.di.prog2.h10.ListIntSet"><a href="ListIntSet.html" target="_top" title="ListIntSet.html" xlink:actuate="onRequest" xlink:href="ListIntSet.html" xlink:show="new" xlink:title="ListIntSet.html" xlink:type="simple"><rect fill="#F1F1F1" height="192.1633" rx="2.5" ry="2.5" style="stroke:#181818;stroke-width:0.5;" width="138.9656" x="6" y="12"/><ellipse cx="24.886" cy="33.344" fill="#ADD1B2" rx="11" ry="11" style="stroke:#181818;stroke-width:1;"/><path d="M27.8548,38.9846 Q27.2767,39.2815 26.636,39.4221 Q25.9954,39.5783 25.2923,39.5783 Q22.7923,39.5783 21.4642,37.9377 Q20.1517,36.2815 20.1517,33.1565 Q20.1517,30.0315 21.4642,28.3752 Q22.7923,26.719 25.2923,26.719 Q25.9954,26.719 26.636,26.8752 Q27.2923,27.0315 27.8548,27.3283 L27.8548,30.0471 Q27.2298,29.469 26.636,29.2033 Q26.0423,28.9221 25.4173,28.9221 Q24.0735,28.9221 23.386,30.0002 Q22.6985,31.0627 22.6985,33.1565 Q22.6985,35.2502 23.386,36.3283 Q24.0735,37.3908 25.4173,37.3908 Q26.0423,37.3908 26.636,37.1252 Q27.2298,36.844 27.8548,36.2658 L27.8548,38.9846 Z " fill="#000000"/><text fill="#000000" font-family="sans-serif" font-size="14" lengthAdjust="spacing" textLength="61.7958" x="58.0167" y="31.9659">ListIntSet</text><text fill="#000000" font-family="sans-serif" font-size="10" lengthAdjust="spacing" textLength="98.3299" x="39.7496" y="46.7579">it.unimi.di.prog2.h10</text><line style="stroke:#181818;stroke-width:0.5;" x1="7" x2="143.9656" y1="54.6879" y2="54.6879"/><rect fill="none" height="6" style="stroke:#C82930;stroke-width:1;" width="6" x="14" y="66.7219"/><text fill="#000000" font-family="sans-serif" font-size="14" lengthAdjust="spacing" textLength="112.9656" x="26" y="73.6538">els: List&lt;Integer&gt;</text><line style="stroke:#181818;stroke-width:0.5;" x1="7" x2="143.9656" y1="81.7558" y2="81.7558"/><rect fill="#F24D5C" height="6" style="stroke:#C82930;stroke-width:1;" width="6" x="14" y="93.7898"/><text fill="#000000" font-family="sans-serif" font-size="14" lengthAdjust="spacing" textLength="109.2976" x="26" y="100.7218">getIndex(int): int</text><ellipse cx="17" cy="115.8577" fill="#84BE84" rx="3" ry="3" style="stroke:#038048;stroke-width:1;"/><text fill="#000000" font-family="sans-serif" font-size="14" lengthAdjust="spacing" textLength="98.6156" x="26" y="119.7897">insert(int): void</text><ellipse cx="17" cy="134.9256" fill="#84BE84" rx="3" ry="3" style="stroke:#038048;stroke-width:1;"/><text fill="#000000" font-family="sans-serif" font-size="14" lengthAdjust="spacing" textLength="111.1596" x="26" y="138.8576">remove(int): void</text><ellipse cx="17" cy="153.9935" fill="#84BE84" rx="3" ry="3" style="stroke:#038048;stroke-width:1;"/><text fill="#000000" font-family="sans-serif" font-size="14" lengthAdjust="spacing" textLength="110.3896" x="26" y="157.9255">isIn(int): boolean</text><ellipse cx="17" cy="173.0614" fill="#84BE84" rx="3" ry="3" style="stroke:#038048;stroke-width:1;"/><text fill="#000000" font-family="sans-serif" font-size="14" lengthAdjust="spacing" textLength="57.9038" x="26" y="176.9934">size(): int</text><ellipse cx="17" cy="192.1294" fill="#84BE84" rx="3" ry="3" style="stroke:#038048;stroke-width:1;"/><text fill="#000000" font-family="sans-serif" font-size="14" lengthAdjust="spacing" textLength="80.0237" x="26" y="196.0613">choose(): int</text></a></g><g class="footer" data-source-line="29"><text fill="#888888" font-family="sans-serif" font-size="10" lengthAdjust="spacing" textLength="2.6" x="70.7" y="208.69">&#160;</text><a href="https://github.com/talsma-ict/umldoclet" target="_top" title="https://github.com/talsma-ict/umldoclet" xlink:actuate="onRequest" xlink:href="https://github.com/talsma-ict/umldoclet" xlink:show="new" xlink:title="https://github.com/talsma-ict/umldoclet" xlink:type="simple"><text fill="#888888" font-family="sans-serif" font-size="10" lengthAdjust="spacing" textLength="76.7199" x="33.64" y="222.31">UMLDoclet 2.2.3</text></a></g><!--SRC=[RLF1Jjj04Btp5LDwQ11aOniA9K98AAqALIfL99n23Xjxi5UiPzpTSTgquj-xTjmO43xOsdcxxxsPVGO0-00JhZREv8M0C4XXFDnzduAc378aT5em0rFg73siq3BbVhiHGTTIi0D-Q5SfEuU-OieCvV1DhpLuhbsANktjGIir_y_-I_jdxAjDK_pCgKM1mUJWcQKaYa-7IPHyXBcsljHmCvchZgq_awX47KFWjYP5ye6ofWnTQ-kgqcduJBV84QpHUSCKpaGTJzDgoYJQa8TAE_5DIp-i9ccynghHLsSmk9fDNtgBpbjlHt3bIDSPtFBFUjVkkyhfF3YsUiErW2zHDEajveDfqcKObqvnXa5KIvWaCM6B5oP3mBAI3JmOj9b_NGra1OToMq-jzXxsBxpvW-Fuv79glDoGp53kgIj6bqPKJQOqAZEgSfmdgeYZVGWNyIQYUX9OBFg5AgIqooNyRPMRPuZMZw7PSH6sO8xkiiTo3ESo_3qm90TZ2EyTTXZ6ZKuwPCqcwo679Q_nJSZu6-g05RD5JJtMz3fuBPCMpFv5-MaxjWil6ukzsGTc2Q7fEskUwqs5RcheSS8stD3xJs-ZTqtUh24C4KyV2SDzHBkTJrkvqJEzJkkU5ej2fFBZqIWtKjGhbN8vaZRhGvFAg2vjjWtvgxWlbrryl-x-eoQBmpWU9l4yFXd7fo4BwlpuF8xEakFaC8h7KRJuKZkkS7JB9Ix_0G00]--></g></svg>