<svg xmlns="http://www.w3.org/2000/svg" xmlns:xlink="http://www.w3.org/1999/xlink" contentStyleType="text/css" data-diagram-type="CLASS" height="526px" preserveAspectRatio="none" style="width:1825px;height:526px;background:#FFFFFF;" version="1.1" viewBox="0 0 1825 526" width="1825px" zoomAndPan="magnify"><defs/><g><!--cluster it.unimi.di.prog2.h13--><g class="cluster" data-entity="it.unimi.di.prog2.h13" data-source-line="10" data-uid="ent0002" id="cluster_it.unimi.di.prog2.h13"><path d="M16.5,212 L163.5895,212 A3.75,3.75 0 0 1 166.0895,214.5 L173.0895,237.0679 L1741.5,237.0679 A2.5,2.5 0 0 1 1744,239.5679 L1744,486.5 A2.5,2.5 0 0 1 1741.5,489 L16.5,489 A2.5,2.5 0 0 1 14,486.5 L14,214.5 A2.5,2.5 0 0 1 16.5,212" fill="none" style="stroke:#000000;stroke-width:1.5;"/><line style="stroke:#000000;stroke-width:1.5;" x1="14" x2="173.0895" y1="237.0679" y2="237.0679"/><text fill="#000000" font-family="sans-serif" font-size="14" font-weight="bold" lengthAdjust="spacing" textLength="146.0895" x="18" y="228.9659">it.unimi.di.prog2.h13</text></g><!--cluster java.util--><g class="cluster" data-entity="java.util" data-source-line="67" data-uid="ent0010" id="cluster_java.util"><path d="M359.5,23 L417.4518,23 A3.75,3.75 0 0 1 419.9518,25.5 L426.9518,48.0679 L704.5,48.0679 A2.5,2.5 0 0 1 707,50.5679 L707,182.5 A2.5,2.5 0 0 1 704.5,185 L359.5,185 A2.5,2.5 0 0 1 357,182.5 L357,25.5 A2.5,2.5 0 0 1 359.5,23" fill="none" style="stroke:#000000;stroke-width:1.5;"/><line style="stroke:#000000;stroke-width:1.5;" x1="357" x2="426.9518" y1="48.0679" y2="48.0679"/><text fill="#000000" font-family="sans-serif" font-size="14" font-weight="bold" lengthAdjust="spacing" textLength="56.9518" x="361" y="39.9659">java.util</text></g><!--cluster java.util.function--><g class="cluster" data-entity="java.util.function" data-source-line="76" data-uid="ent0012" id="cluster_java.util.function"><path d="M1226.5,4 L1347.6616,4 A3.75,3.75 0 0 1 1350.1616,6.5 L1357.1616,29.0679 L1527.5,29.0679 A2.5,2.5 0 0 1 1530,31.5679 L1530,201.5 A2.5,2.5 0 0 1 1527.5,204 L1226.5,204 A2.5,2.5 0 0 1 1224,201.5 L1224,6.5 A2.5,2.5 0 0 1 1226.5,4" fill="none" style="stroke:#000000;stroke-width:1.5;"/><line style="stroke:#000000;stroke-width:1.5;" x1="1224" x2="1357.1616" y1="29.0679" y2="29.0679"/><text fill="#000000" font-family="sans-serif" font-size="14" font-weight="bold" lengthAdjust="spacing" textLength="120.1616" x="1228" y="20.9659">java.util.function</text></g><!--cluster java.lang--><g class="cluster" data-entity="java.lang" data-source-line="87" data-uid="ent0014" id="cluster_java.lang"><path d="M1540.5,32.5 L1605.4238,32.5 A3.75,3.75 0 0 1 1607.9238,35 L1614.9238,57.5679 L1815.5,57.5679 A2.5,2.5 0 0 1 1818,60.0679 L1818,173 A2.5,2.5 0 0 1 1815.5,175.5 L1540.5,175.5 A2.5,2.5 0 0 1 1538,173 L1538,35 A2.5,2.5 0 0 1 1540.5,32.5" fill="none" style="stroke:#000000;stroke-width:1.5;"/><line style="stroke:#000000;stroke-width:1.5;" x1="1538" x2="1614.9238" y1="57.5679" y2="57.5679"/><text fill="#000000" font-family="sans-serif" font-size="14" font-weight="bold" lengthAdjust="spacing" textLength="63.9238" x="1542" y="49.4659">java.lang</text></g><!--class FilteredStringIterator--><g class="entity" data-entity="FilteredStringIterator" data-source-line="12" data-uid="ent0003" id="entity_FilteredStringIterator"><a href="FilteredStringIterator.html" target="_top" title="FilteredStringIterator.html" xlink:actuate="onRequest" xlink:href="FilteredStringIterator.html" xlink:show="new" xlink:title="FilteredStringIterator.html" xlink:type="simple"><rect fill="#F1F1F1" height="162.4075" rx="2.5" ry="2.5" style="stroke:#181818;stroke-width:0.5;" width="404.9086" x="22.5" y="280.5"/><ellipse cx="150.8236" cy="296.5" fill="#ADD1B2" rx="11" ry="11" style="stroke:#181818;stroke-width:1;"/><path d="M153.7923,302.1406 Q153.2142,302.4375 152.5736,302.5781 Q151.9329,302.7344 151.2298,302.7344 Q148.7298,302.7344 147.4017,301.0938 Q146.0892,299.4375 146.0892,296.3125 Q146.0892,293.1875 147.4017,291.5313 Q148.7298,289.875 151.2298,289.875 Q151.9329,289.875 152.5736,290.0313 Q153.2298,290.1875 153.7923,290.4844 L153.7923,293.2031 Q153.1673,292.625 152.5736,292.3594 Q151.9798,292.0781 151.3548,292.0781 Q150.0111,292.0781 149.3236,293.1563 Q148.6361,294.2188 148.6361,296.3125 Q148.6361,298.4063 149.3236,299.4844 Q150.0111,300.5469 151.3548,300.5469 Q151.9798,300.5469 152.5736,300.2813 Q153.1673,300 153.7923,299.4219 L153.7923,302.1406 Z " fill="#000000"/><text fill="#000000" font-family="sans-serif" font-size="14" lengthAdjust="spacing" textLength="139.7615" x="171.3236" y="301.932">FilteredStringIterator</text><line style="stroke:#181818;stroke-width:0.5;" x1="23.5" x2="426.4086" y1="312.5" y2="312.5"/><rect fill="none" height="6" style="stroke:#C82930;stroke-width:1;" width="6" x="30.5" y="324.534"/><text fill="#000000" font-family="sans-serif" font-size="14" lengthAdjust="spacing" textLength="163.6454" x="42.5" y="331.4659">original: Iterator&lt;String&gt;</text><rect fill="none" height="6" style="stroke:#C82930;stroke-width:1;" width="6" x="30.5" y="343.6019"/><text fill="#000000" font-family="sans-serif" font-size="14" lengthAdjust="spacing" textLength="186.7313" x="42.5" y="350.5339">predicate: Predicate&lt;String&gt;</text><rect fill="none" height="6" style="stroke:#C82930;stroke-width:1;" width="6" x="30.5" y="362.6698"/><text fill="#000000" font-family="sans-serif" font-size="14" lengthAdjust="spacing" textLength="75.7957" x="42.5" y="369.6018">next: String</text><line style="stroke:#181818;stroke-width:0.5;" x1="23.5" x2="426.4086" y1="377.7038" y2="377.7038"/><ellipse cx="33.5" cy="392.7377" fill="#84BE84" rx="3" ry="3" style="stroke:#038048;stroke-width:1;"/><text fill="#000000" font-family="sans-serif" font-size="14" lengthAdjust="spacing" textLength="378.9086" x="42.5" y="396.6697">FilteredStringIterator(Iterator&lt;String&gt;, Predicate&lt;String&gt;)</text><ellipse cx="33.5" cy="411.8056" fill="#84BE84" rx="3" ry="3" style="stroke:#038048;stroke-width:1;"/><text fill="#000000" font-family="sans-serif" font-size="14" lengthAdjust="spacing" textLength="123.5635" x="42.5" y="415.7376">hasNext(): boolean</text><ellipse cx="33.5" cy="430.8735" fill="#84BE84" rx="3" ry="3" style="stroke:#038048;stroke-width:1;"/><text fill="#000000" font-family="sans-serif" font-size="14" lengthAdjust="spacing" textLength="84.1957" x="42.5" y="434.8055">next(): String</text></a></g><!--class Primes--><g class="entity" data-entity="Primes" data-source-line="21" data-uid="ent0004" id="entity_Primes"><a href="Primes.html" target="_top" title="Primes.html" xlink:actuate="onRequest" xlink:href="Primes.html" xlink:show="new" xlink:title="Primes.html" xlink:type="simple"><rect fill="#F1F1F1" height="143.3396" rx="2.5" ry="2.5" style="stroke:#181818;stroke-width:0.5;" width="283.669" x="806" y="290"/><ellipse cx="920.8066" cy="306" fill="#ADD1B2" rx="11" ry="11" style="stroke:#181818;stroke-width:1;"/><path d="M923.7753,311.6406 Q923.1972,311.9375 922.5566,312.0781 Q921.916,312.2344 921.2128,312.2344 Q918.7128,312.2344 917.3847,310.5938 Q916.0722,308.9375 916.0722,305.8125 Q916.0722,302.6875 917.3847,301.0313 Q918.7128,299.375 921.2128,299.375 Q921.916,299.375 922.5566,299.5313 Q923.2128,299.6875 923.7753,299.9844 L923.7753,302.7031 Q923.1503,302.125 922.5566,301.8594 Q921.9628,301.5781 921.3378,301.5781 Q919.9941,301.5781 919.3066,302.6563 Q918.6191,303.7188 918.6191,305.8125 Q918.6191,307.9063 919.3066,308.9844 Q919.9941,310.0469 921.3378,310.0469 Q921.9628,310.0469 922.5566,309.7813 Q923.1503,309.5 923.7753,308.9219 L923.7753,311.6406 Z " fill="#000000"/><text fill="#000000" font-family="sans-serif" font-size="14" lengthAdjust="spacing" textLength="45.5558" x="941.3066" y="311.432">Primes</text><line style="stroke:#181818;stroke-width:0.5;" x1="807" x2="1088.669" y1="322" y2="322"/><rect fill="none" height="6" style="stroke:#C82930;stroke-width:1;" width="6" x="814" y="334.034"/><text fill="#000000" font-family="sans-serif" font-size="14" lengthAdjust="spacing" textLength="89.5717" x="826" y="340.9659">candidate: int</text><rect fill="none" height="6" style="stroke:#C82930;stroke-width:1;" width="6" x="814" y="353.1019"/><text fill="#000000" font-family="sans-serif" font-size="14" lengthAdjust="spacing" textLength="179.5073" x="826" y="360.0339">foundPrimes: List&lt;Integer&gt;</text><line style="stroke:#181818;stroke-width:0.5;" x1="807" x2="1088.669" y1="368.1358" y2="368.1358"/><ellipse cx="817" cy="383.1698" fill="#84BE84" rx="3" ry="3" style="stroke:#038048;stroke-width:1;"/><text fill="#000000" font-family="sans-serif" font-size="14" lengthAdjust="spacing" textLength="123.5635" x="826" y="387.1018">hasNext(): boolean</text><rect fill="#F24D5C" height="6" style="stroke:#C82930;stroke-width:1;" width="6" x="814" y="399.2377"/><text fill="#000000" font-family="sans-serif" font-size="14" lengthAdjust="spacing" textLength="257.669" x="826" y="406.1697">isDivisibleByAFoundPrime(int): boolean</text><ellipse cx="817" cy="421.3056" fill="#84BE84" rx="3" ry="3" style="stroke:#038048;stroke-width:1;"/><text fill="#000000" font-family="sans-serif" font-size="14" lengthAdjust="spacing" textLength="93.4356" x="826" y="425.2376">next(): Integer</text></a></g><!--class FilteredStringIteratorClient--><g class="entity" data-entity="FilteredStringIteratorClient" data-source-line="29" data-uid="ent0005" id="entity_FilteredStringIteratorClient"><a href="FilteredStringIteratorClient.html" target="_top" title="FilteredStringIteratorClient.html" xlink:actuate="onRequest" xlink:href="FilteredStringIteratorClient.html" xlink:show="new" xlink:title="FilteredStringIteratorClient.html" xlink:type="simple"><rect fill="#F1F1F1" height="67.0679" rx="2.5" ry="2.5" style="stroke:#181818;stroke-width:0.5;" width="209.4353" x="1108.5" y="328"/><ellipse cx="1123.5" cy="344" fill="#ADD1B2" rx="11" ry="11" style="stroke:#181818;stroke-width:1;"/><path d="M1126.4688,349.6406 Q1125.8906,349.9375 1125.25,350.0781 Q1124.6094,350.2344 1123.9063,350.2344 Q1121.4063,350.2344 1120.0781,348.5938 Q1118.7656,346.9375 1118.7656,343.8125 Q1118.7656,340.6875 1120.0781,339.0313 Q1121.4063,337.375 1123.9063,337.375 Q1124.6094,337.375 1125.25,337.5313 Q1125.9063,337.6875 1126.4688,337.9844 L1126.4688,340.7031 Q1125.8438,340.125 1125.25,339.8594 Q1124.6563,339.5781 1124.0313,339.5781 Q1122.6875,339.5781 1122,340.6563 Q1121.3125,341.7188 1121.3125,343.8125 Q1121.3125,345.9063 1122,346.9844 Q1122.6875,348.0469 1124.0313,348.0469 Q1124.6563,348.0469 1125.25,347.7813 Q1125.8438,347.5 1126.4688,346.9219 L1126.4688,349.6406 Z " fill="#000000"/><text fill="#000000" font-family="sans-serif" font-size="14" lengthAdjust="spacing" textLength="177.4353" x="1137.5" y="349.432">FilteredStringIteratorClient</text><line style="stroke:#181818;stroke-width:0.5;" x1="1109.5" x2="1316.9353" y1="360" y2="360"/><line style="stroke:#181818;stroke-width:0.5;" x1="1109.5" x2="1316.9353" y1="368" y2="368"/><ellipse cx="1119.5" cy="383.034" fill="#84BE84" rx="3" ry="3" style="stroke:#038048;stroke-width:1;"/><text fill="#000000" font-family="sans-serif" font-size="14" lengthAdjust="spacing" text-decoration="underline" textLength="125.4115" x="1128.5" y="386.9659">main(String[]): void</text></a></g><!--class StringEndsWith--><g class="entity" data-entity="StringEndsWith" data-source-line="33" data-uid="ent0006" id="entity_StringEndsWith"><a href="StringEndsWith.html" target="_top" title="StringEndsWith.html" xlink:actuate="onRequest" xlink:href="StringEndsWith.html" xlink:show="new" xlink:title="StringEndsWith.html" xlink:type="simple"><rect fill="#F1F1F1" height="105.2038" rx="2.5" ry="2.5" style="stroke:#181818;stroke-width:0.5;" width="175.2814" x="1335.5" y="309"/><ellipse cx="1369.3081" cy="325" fill="#ADD1B2" rx="11" ry="11" style="stroke:#181818;stroke-width:1;"/><path d="M1372.2769,330.6406 Q1371.6987,330.9375 1371.0581,331.0781 Q1370.4175,331.2344 1369.7144,331.2344 Q1367.2144,331.2344 1365.8862,329.5938 Q1364.5737,327.9375 1364.5737,324.8125 Q1364.5737,321.6875 1365.8862,320.0313 Q1367.2144,318.375 1369.7144,318.375 Q1370.4175,318.375 1371.0581,318.5313 Q1371.7144,318.6875 1372.2769,318.9844 L1372.2769,321.7031 Q1371.6519,321.125 1371.0581,320.8594 Q1370.4644,320.5781 1369.8394,320.5781 Q1368.4956,320.5781 1367.8081,321.6563 Q1367.1206,322.7188 1367.1206,324.8125 Q1367.1206,326.9063 1367.8081,327.9844 Q1368.4956,329.0469 1369.8394,329.0469 Q1370.4644,329.0469 1371.0581,328.7813 Q1371.6519,328.5 1372.2769,327.9219 L1372.2769,330.6406 Z " fill="#000000"/><text fill="#000000" font-family="sans-serif" font-size="14" lengthAdjust="spacing" textLength="101.4856" x="1387.4877" y="330.432">StringEndsWith</text><line style="stroke:#181818;stroke-width:0.5;" x1="1336.5" x2="1509.7814" y1="341" y2="341"/><rect fill="none" height="6" style="stroke:#C82930;stroke-width:1;" width="6" x="1343.5" y="353.034"/><text fill="#000000" font-family="sans-serif" font-size="14" lengthAdjust="spacing" textLength="82.7957" x="1355.5" y="359.9659">suffix: String</text><line style="stroke:#181818;stroke-width:0.5;" x1="1336.5" x2="1509.7814" y1="368.0679" y2="368.0679"/><ellipse cx="1346.5" cy="383.1019" fill="#84BE84" rx="3" ry="3" style="stroke:#038048;stroke-width:1;"/><text fill="#000000" font-family="sans-serif" font-size="14" lengthAdjust="spacing" textLength="149.2814" x="1355.5" y="387.0339">StringEndsWith(String)</text><ellipse cx="1346.5" cy="402.1698" fill="#84BE84" rx="3" ry="3" style="stroke:#038048;stroke-width:1;"/><text fill="#000000" font-family="sans-serif" font-size="14" lengthAdjust="spacing" textLength="133.4615" x="1355.5" y="406.1018">test(String): boolean</text></a></g><!--class ArrayIntSetClient--><g class="entity" data-entity="ArrayIntSetClient" data-source-line="39" data-uid="ent0007" id="entity_ArrayIntSetClient"><a href="ArrayIntSetClient.html" target="_top" title="ArrayIntSetClient.html" xlink:actuate="onRequest" xlink:href="ArrayIntSetClient.html" xlink:show="new" xlink:title="ArrayIntSetClient.html" xlink:type="simple"><rect fill="#F1F1F1" height="67.0679" rx="2.5" ry="2.5" style="stroke:#181818;stroke-width:0.5;" width="151.4115" x="636.5" y="328"/><ellipse cx="654.7157" cy="344" fill="#ADD1B2" rx="11" ry="11" style="stroke:#181818;stroke-width:1;"/><path d="M657.6844,349.6406 Q657.1063,349.9375 656.4657,350.0781 Q655.8251,350.2344 655.1219,350.2344 Q652.6219,350.2344 651.2938,348.5938 Q649.9813,346.9375 649.9813,343.8125 Q649.9813,340.6875 651.2938,339.0313 Q652.6219,337.375 655.1219,337.375 Q655.8251,337.375 656.4657,337.5313 Q657.1219,337.6875 657.6844,337.9844 L657.6844,340.7031 Q657.0594,340.125 656.4657,339.8594 Q655.8719,339.5781 655.2469,339.5781 Q653.9032,339.5781 653.2157,340.6563 Q652.5282,341.7188 652.5282,343.8125 Q652.5282,345.9063 653.2157,346.9844 Q653.9032,348.0469 655.2469,348.0469 Q655.8719,348.0469 656.4657,347.7813 Q657.0594,347.5 657.6844,346.9219 L657.6844,349.6406 Z " fill="#000000"/><text fill="#000000" font-family="sans-serif" font-size="14" lengthAdjust="spacing" textLength="112.2656" x="669.4303" y="349.432">ArrayIntSetClient</text><line style="stroke:#181818;stroke-width:0.5;" x1="637.5" x2="786.9115" y1="360" y2="360"/><line style="stroke:#181818;stroke-width:0.5;" x1="637.5" x2="786.9115" y1="368" y2="368"/><ellipse cx="647.5" cy="383.034" fill="#84BE84" rx="3" ry="3" style="stroke:#038048;stroke-width:1;"/><text fill="#000000" font-family="sans-serif" font-size="14" lengthAdjust="spacing" text-decoration="underline" textLength="125.4115" x="656.5" y="386.9659">main(String[]): void</text></a></g><!--class ArrayIntSet--><g class="entity" data-entity="ArrayIntSet" data-source-line="43" data-uid="ent0008" id="entity_ArrayIntSet"><a href="ArrayIntSet.html" target="_top" title="ArrayIntSet.html" xlink:actuate="onRequest" xlink:href="ArrayIntSet.html" xlink:show="new" xlink:title="ArrayIntSet.html" xlink:type="simple"><rect fill="#F1F1F1" height="238.6792" rx="2.5" ry="2.5" style="stroke:#181818;stroke-width:0.5;" width="206.5853" x="1528.5" y="242"/><ellipse cx="1590.2468" cy="258" fill="#ADD1B2" rx="11" ry="11" style="stroke:#181818;stroke-width:1;"/><path d="M1593.2156,263.6406 Q1592.6374,263.9375 1591.9968,264.0781 Q1591.3562,264.2344 1590.6531,264.2344 Q1588.1531,264.2344 1586.8249,262.5938 Q1585.5124,260.9375 1585.5124,257.8125 Q1585.5124,254.6875 1586.8249,253.0313 Q1588.1531,251.375 1590.6531,251.375 Q1591.3562,251.375 1591.9968,251.5313 Q1592.6531,251.6875 1593.2156,251.9844 L1593.2156,254.7031 Q1592.5906,254.125 1591.9968,253.8594 Q1591.4031,253.5781 1590.7781,253.5781 Q1589.4343,253.5781 1588.7468,254.6563 Q1588.0593,255.7188 1588.0593,257.8125 Q1588.0593,259.9063 1588.7468,260.9844 Q1589.4343,262.0469 1590.7781,262.0469 Q1591.4031,262.0469 1591.9968,261.7813 Q1592.5906,261.5 1593.2156,260.9219 L1593.2156,263.6406 Z " fill="#000000"/><text fill="#000000" font-family="sans-serif" font-size="14" lengthAdjust="spacing" textLength="74.5917" x="1610.7468" y="263.432">ArrayIntSet</text><line style="stroke:#181818;stroke-width:0.5;" x1="1529.5" x2="1734.0853" y1="274" y2="274"/><rect fill="none" height="6" style="stroke:#C82930;stroke-width:1;" width="6" x="1536.5" y="286.034"/><text fill="#000000" font-family="sans-serif" font-size="14" lengthAdjust="spacing" text-decoration="underline" textLength="144.3814" x="1548.5" y="292.9659">INITIAL_CAPACITY: int</text><rect fill="none" height="6" style="stroke:#C82930;stroke-width:1;" width="6" x="1536.5" y="305.1019"/><text fill="#000000" font-family="sans-serif" font-size="14" lengthAdjust="spacing" textLength="52.1358" x="1548.5" y="312.0339">els: int[]</text><rect fill="none" height="6" style="stroke:#C82930;stroke-width:1;" width="6" x="1536.5" y="324.1698"/><text fill="#000000" font-family="sans-serif" font-size="14" lengthAdjust="spacing" textLength="49.5038" x="1548.5" y="331.1018">size: int</text><line style="stroke:#181818;stroke-width:0.5;" x1="1529.5" x2="1734.0853" y1="339.2038" y2="339.2038"/><rect fill="#F24D5C" height="6" style="stroke:#C82930;stroke-width:1;" width="6" x="1536.5" y="351.2377"/><text fill="#000000" font-family="sans-serif" font-size="14" lengthAdjust="spacing" textLength="102.3536" x="1548.5" y="358.1697">indexOf(int): int</text><ellipse cx="1539.5" cy="373.3056" fill="#84BE84" rx="3" ry="3" style="stroke:#038048;stroke-width:1;"/><text fill="#000000" font-family="sans-serif" font-size="14" lengthAdjust="spacing" textLength="98.6156" x="1548.5" y="377.2376">insert(int): void</text><ellipse cx="1539.5" cy="392.3735" fill="#84BE84" rx="3" ry="3" style="stroke:#038048;stroke-width:1;"/><text fill="#000000" font-family="sans-serif" font-size="14" lengthAdjust="spacing" textLength="111.1596" x="1548.5" y="396.3055">remove(int): void</text><ellipse cx="1539.5" cy="411.4415" fill="#84BE84" rx="3" ry="3" style="stroke:#038048;stroke-width:1;"/><text fill="#000000" font-family="sans-serif" font-size="14" lengthAdjust="spacing" textLength="110.3896" x="1548.5" y="415.3734">isIn(int): boolean</text><ellipse cx="1539.5" cy="430.5094" fill="#84BE84" rx="3" ry="3" style="stroke:#038048;stroke-width:1;"/><text fill="#000000" font-family="sans-serif" font-size="14" lengthAdjust="spacing" textLength="57.9038" x="1548.5" y="434.4414">size(): int</text><ellipse cx="1539.5" cy="449.5773" fill="#84BE84" rx="3" ry="3" style="stroke:#038048;stroke-width:1;"/><text fill="#000000" font-family="sans-serif" font-size="14" lengthAdjust="spacing" textLength="80.0237" x="1548.5" y="453.5093">choose(): int</text><ellipse cx="1539.5" cy="468.6452" fill="#84BE84" rx="3" ry="3" style="stroke:#038048;stroke-width:1;"/><text fill="#000000" font-family="sans-serif" font-size="14" lengthAdjust="spacing" textLength="180.5853" x="1548.5" y="472.5772">iterator(): Iterator&lt;Integer&gt;</text></a></g><!--class IntGenerator--><g class="entity" data-entity="IntGenerator" data-source-line="56" data-uid="ent0009" id="entity_IntGenerator"><a href="IntGenerator.html" target="_top" title="IntGenerator.html" xlink:actuate="onRequest" xlink:href="IntGenerator.html" xlink:show="new" xlink:title="IntGenerator.html" xlink:type="simple"><rect fill="#F1F1F1" height="162.4075" rx="2.5" ry="2.5" style="stroke:#181818;stroke-width:0.5;" width="171.6694" x="446" y="280.5"/><ellipse cx="485.1379" cy="296.5" fill="#ADD1B2" rx="11" ry="11" style="stroke:#181818;stroke-width:1;"/><path d="M488.1066,302.1406 Q487.5285,302.4375 486.8879,302.5781 Q486.2473,302.7344 485.5441,302.7344 Q483.0441,302.7344 481.716,301.0938 Q480.4035,299.4375 480.4035,296.3125 Q480.4035,293.1875 481.716,291.5313 Q483.0441,289.875 485.5441,289.875 Q486.2473,289.875 486.8879,290.0313 Q487.5441,290.1875 488.1066,290.4844 L488.1066,293.2031 Q487.4816,292.625 486.8879,292.3594 Q486.2941,292.0781 485.6691,292.0781 Q484.3254,292.0781 483.6379,293.1563 Q482.9504,294.2188 482.9504,296.3125 Q482.9504,298.4063 483.6379,299.4844 Q484.3254,300.5469 485.6691,300.5469 Q486.2941,300.5469 486.8879,300.2813 Q487.4816,300 488.1066,299.4219 L488.1066,302.1406 Z " fill="#000000"/><text fill="#000000" font-family="sans-serif" font-size="14" lengthAdjust="spacing" textLength="86.0297" x="504.5019" y="301.932">IntGenerator</text><line style="stroke:#181818;stroke-width:0.5;" x1="447" x2="616.6694" y1="312.5" y2="312.5"/><rect fill="none" height="6" style="stroke:#C82930;stroke-width:1;" width="6" x="454" y="324.534"/><text fill="#000000" font-family="sans-serif" font-size="14" lengthAdjust="spacing" textLength="52.1358" x="466" y="331.4659">els: int[]</text><rect fill="none" height="6" style="stroke:#C82930;stroke-width:1;" width="6" x="454" y="343.6019"/><text fill="#000000" font-family="sans-serif" font-size="14" lengthAdjust="spacing" textLength="49.5038" x="466" y="350.5339">size: int</text><rect fill="none" height="6" style="stroke:#C82930;stroke-width:1;" width="6" x="454" y="362.6698"/><text fill="#000000" font-family="sans-serif" font-size="14" lengthAdjust="spacing" textLength="44.3378" x="466" y="369.6018">idx: int</text><line style="stroke:#181818;stroke-width:0.5;" x1="447" x2="616.6694" y1="377.7038" y2="377.7038"/><ellipse cx="457" cy="392.7377" fill="#84BE84" rx="3" ry="3" style="stroke:#038048;stroke-width:1;"/><text fill="#000000" font-family="sans-serif" font-size="14" lengthAdjust="spacing" textLength="145.6694" x="466" y="396.6697">IntGenerator(int[], int)</text><ellipse cx="457" cy="411.8056" fill="#84BE84" rx="3" ry="3" style="stroke:#038048;stroke-width:1;"/><text fill="#000000" font-family="sans-serif" font-size="14" lengthAdjust="spacing" textLength="123.5635" x="466" y="415.7376">hasNext(): boolean</text><ellipse cx="457" cy="430.8735" fill="#84BE84" rx="3" ry="3" style="stroke:#038048;stroke-width:1;"/><text fill="#000000" font-family="sans-serif" font-size="14" lengthAdjust="spacing" textLength="93.4356" x="466" y="434.8055">next(): Integer</text></a></g><!--class Iterator--><g class="entity" data-entity="Iterator" data-source-line="68" data-uid="ent0011" id="entity_Iterator"><a href="https://docs.oracle.com/en/java/javase/25/docs/api/java.base/java/util/Iterator.html?is-external=true" target="_top" title="https://docs.oracle.com/en/java/javase/25/docs/api/java.base/java/util/Iterator.html?is-external=true" xlink:actuate="onRequest" xlink:href="https://docs.oracle.com/en/java/javase/25/docs/api/java.base/java/util/Iterator.html?is-external=true" xlink:show="new" xlink:title="https://docs.oracle.com/en/java/javase/25/docs/api/java.base/java/util/Iterator.html?is-external=true" xlink:type="simple"><rect fill="#F1F1F1" height="124.2717" rx="2.5" ry="2.5" style="stroke:#181818;stroke-width:0.5;" width="333.2568" x="365.5" y="53"/><ellipse cx="498.8965" cy="69" fill="#B4A7E5" rx="11" ry="11" style="stroke:#181818;stroke-width:1;"/><path d="M494.8183,64.7656 L494.8183,62.6094 L502.209,62.6094 L502.209,64.7656 L499.7402,64.7656 L499.7402,72.8438 L502.209,72.8438 L502.209,75 L494.8183,75 L494.8183,72.8438 L497.2871,72.8438 L497.2871,64.7656 L494.8183,64.7656 Z " fill="#000000"/><text fill="#000000" font-family="sans-serif" font-size="14" font-style="italic" lengthAdjust="spacing" textLength="47.7958" x="519.3965" y="74.432">Iterator</text><rect fill="#FFFFFF" height="18.3441" style="stroke:#181818;stroke-width:1;stroke-dasharray:2,2;" width="8.168" x="693.5887" y="50"/><text fill="#000000" font-family="sans-serif" font-size="12" font-style="italic" lengthAdjust="spacing" textLength="6.168" x="694.5887" y="63.8281">E</text><line style="stroke:#181818;stroke-width:0.5;" x1="366.5" x2="697.7568" y1="85" y2="85"/><line style="stroke:#181818;stroke-width:0.5;" x1="366.5" x2="697.7568" y1="93" y2="93"/><ellipse cx="376.5" cy="108.034" fill="#84BE84" rx="3" ry="3" style="stroke:#038048;stroke-width:1;"/><text fill="#000000" font-family="sans-serif" font-size="14" font-style="italic" lengthAdjust="spacing" textLength="116.2696" x="385.5" y="111.9659">hasNext(): boolean</text><ellipse cx="376.5" cy="127.1019" fill="#84BE84" rx="3" ry="3" style="stroke:#038048;stroke-width:1;"/><text fill="#000000" font-family="sans-serif" font-size="14" font-style="italic" lengthAdjust="spacing" textLength="49.0418" x="385.5" y="131.0339">next(): E</text><ellipse cx="376.5" cy="146.1698" fill="#84BE84" rx="3" ry="3" style="stroke:#038048;stroke-width:1;"/><text fill="#000000" font-family="sans-serif" font-size="14" lengthAdjust="spacing" textLength="93.8416" x="385.5" y="150.1018">remove(): void</text><ellipse cx="376.5" cy="165.2377" fill="#84BE84" rx="3" ry="3" style="stroke:#038048;stroke-width:1;"/><text fill="#000000" font-family="sans-serif" font-size="14" lengthAdjust="spacing" textLength="307.2568" x="385.5" y="169.1697">forEachRemaining(Consumer&lt;? super E&gt;): void</text></a></g><!--class Predicate--><g class="entity" data-entity="Predicate" data-source-line="77" data-uid="ent0013" id="entity_Predicate"><a href="https://docs.oracle.com/en/java/javase/25/docs/api/java.base/java/util/function/Predicate.html?is-external=true" target="_top" title="https://docs.oracle.com/en/java/javase/25/docs/api/java.base/java/util/function/Predicate.html?is-external=true" xlink:actuate="onRequest" xlink:href="https://docs.oracle.com/en/java/javase/25/docs/api/java.base/java/util/function/Predicate.html?is-external=true" xlink:show="new" xlink:title="https://docs.oracle.com/en/java/javase/25/docs/api/java.base/java/util/function/Predicate.html?is-external=true" xlink:type="simple"><rect fill="#F1F1F1" height="162.4075" rx="2.5" ry="2.5" style="stroke:#181818;stroke-width:0.5;" width="289.297" x="1232.5" y="34"/><ellipse cx="1338.8216" cy="50" fill="#B4A7E5" rx="11" ry="11" style="stroke:#181818;stroke-width:1;"/><path d="M1334.7434,45.7656 L1334.7434,43.6094 L1342.1341,43.6094 L1342.1341,45.7656 L1339.6653,45.7656 L1339.6653,53.8438 L1342.1341,53.8438 L1342.1341,56 L1334.7434,56 L1334.7434,53.8438 L1337.2122,53.8438 L1337.2122,45.7656 L1334.7434,45.7656 Z " fill="#000000"/><text fill="#000000" font-family="sans-serif" font-size="14" font-style="italic" lengthAdjust="spacing" textLength="58.1418" x="1359.3216" y="55.432">Predicate</text><rect fill="#FFFFFF" height="18.3441" style="stroke:#181818;stroke-width:1;stroke-dasharray:2,2;" width="8.012" x="1516.7849" y="31"/><text fill="#000000" font-family="sans-serif" font-size="12" font-style="italic" lengthAdjust="spacing" textLength="6.012" x="1517.7849" y="44.8281">T</text><line style="stroke:#181818;stroke-width:0.5;" x1="1233.5" x2="1520.797" y1="66" y2="66"/><line style="stroke:#181818;stroke-width:0.5;" x1="1233.5" x2="1520.797" y1="74" y2="74"/><ellipse cx="1243.5" cy="89.034" fill="#84BE84" rx="3" ry="3" style="stroke:#038048;stroke-width:1;"/><text fill="#000000" font-family="sans-serif" font-size="14" font-style="italic" lengthAdjust="spacing" textLength="95.2136" x="1252.5" y="92.9659">test(T): boolean</text><ellipse cx="1243.5" cy="108.1019" fill="#84BE84" rx="3" ry="3" style="stroke:#038048;stroke-width:1;"/><text fill="#000000" font-family="sans-serif" font-size="14" lengthAdjust="spacing" textLength="263.297" x="1252.5" y="112.0339">and(Predicate&lt;? super T&gt;): Predicate&lt;T&gt;</text><ellipse cx="1243.5" cy="127.1698" fill="#84BE84" rx="3" ry="3" style="stroke:#038048;stroke-width:1;"/><text fill="#000000" font-family="sans-serif" font-size="14" lengthAdjust="spacing" textLength="147.4474" x="1252.5" y="131.1018">negate(): Predicate&lt;T&gt;</text><ellipse cx="1243.5" cy="146.2377" fill="#84BE84" rx="3" ry="3" style="stroke:#038048;stroke-width:1;"/><text fill="#000000" font-family="sans-serif" font-size="14" lengthAdjust="spacing" textLength="252.433" x="1252.5" y="150.1697">or(Predicate&lt;? super T&gt;): Predicate&lt;T&gt;</text><ellipse cx="1243.5" cy="165.3056" fill="#84BE84" rx="3" ry="3" style="stroke:#038048;stroke-width:1;"/><text fill="#000000" font-family="sans-serif" font-size="14" lengthAdjust="spacing" text-decoration="underline" textLength="191.1413" x="1252.5" y="169.2376">isEqual(Object): Predicate&lt;T&gt;</text><ellipse cx="1243.5" cy="184.3735" fill="#84BE84" rx="3" ry="3" style="stroke:#038048;stroke-width:1;"/><text fill="#000000" font-family="sans-serif" font-size="14" lengthAdjust="spacing" text-decoration="underline" textLength="260.357" x="1252.5" y="188.3055">not(Predicate&lt;? super T&gt;): Predicate&lt;T&gt;</text></a></g><!--class Iterable--><g class="entity" data-entity="Iterable" data-source-line="88" data-uid="ent0015" id="entity_Iterable"><a href="https://docs.oracle.com/en/java/javase/25/docs/api/java.base/java/lang/Iterable.html?is-external=true" target="_top" title="https://docs.oracle.com/en/java/javase/25/docs/api/java.base/java/lang/Iterable.html?is-external=true" xlink:actuate="onRequest" xlink:href="https://docs.oracle.com/en/java/javase/25/docs/api/java.base/java/lang/Iterable.html?is-external=true" xlink:show="new" xlink:title="https://docs.oracle.com/en/java/javase/25/docs/api/java.base/java/lang/Iterable.html?is-external=true" xlink:type="simple"><rect fill="#F1F1F1" height="105.2038" rx="2.5" ry="2.5" style="stroke:#181818;stroke-width:0.5;" width="262.5711" x="1546.5" y="62.5"/><ellipse cx="1644.3306" cy="78.5" fill="#B4A7E5" rx="11" ry="11" style="stroke:#181818;stroke-width:1;"/><path d="M1640.2525,74.2656 L1640.2525,72.1094 L1647.6431,72.1094 L1647.6431,74.2656 L1645.1744,74.2656 L1645.1744,82.3438 L1647.6431,82.3438 L1647.6431,84.5 L1640.2525,84.5 L1640.2525,82.3438 L1642.7212,82.3438 L1642.7212,74.2656 L1640.2525,74.2656 Z " fill="#000000"/><text fill="#000000" font-family="sans-serif" font-size="14" font-style="italic" lengthAdjust="spacing" textLength="48.3978" x="1664.8306" y="83.932">Iterable</text><rect fill="#FFFFFF" height="18.3441" style="stroke:#181818;stroke-width:1;stroke-dasharray:2,2;" width="8.012" x="1804.059" y="59.5"/><text fill="#000000" font-family="sans-serif" font-size="12" font-style="italic" lengthAdjust="spacing" textLength="6.012" x="1805.059" y="73.3281">T</text><line style="stroke:#181818;stroke-width:0.5;" x1="1547.5" x2="1808.0711" y1="94.5" y2="94.5"/><line style="stroke:#181818;stroke-width:0.5;" x1="1547.5" x2="1808.0711" y1="102.5" y2="102.5"/><ellipse cx="1557.5" cy="117.534" fill="#84BE84" rx="3" ry="3" style="stroke:#038048;stroke-width:1;"/><text fill="#000000" font-family="sans-serif" font-size="14" font-style="italic" lengthAdjust="spacing" textLength="133.0415" x="1566.5" y="121.4659">iterator(): Iterator&lt;T&gt;</text><ellipse cx="1557.5" cy="136.6019" fill="#84BE84" rx="3" ry="3" style="stroke:#038048;stroke-width:1;"/><text fill="#000000" font-family="sans-serif" font-size="14" lengthAdjust="spacing" textLength="236.5711" x="1566.5" y="140.5339">forEach(Consumer&lt;? super T&gt;): void</text><ellipse cx="1557.5" cy="155.6698" fill="#84BE84" rx="3" ry="3" style="stroke:#038048;stroke-width:1;"/><text fill="#000000" font-family="sans-serif" font-size="14" lengthAdjust="spacing" textLength="177.4353" x="1566.5" y="159.6018">spliterator(): Spliterator&lt;T&gt;</text></a></g><g class="link" data-entity-1="Iterator" data-entity-2="FilteredStringIterator" data-uid="lnk16" id="link_Iterator_FilteredStringIterator"><polygon fill="none" points="455.3229,177.067,437.5047,183.5873,444.9806,192.9741,455.3229,177.067" style="stroke:#181818;stroke-width:1;"/><path d="M441.2426,188.2807 C401.993,219.5398 367.7948,246.7758 325.5947,280.3847" fill="none" style="stroke:#181818;stroke-width:1;stroke-dasharray:7,7;"/></g><g class="link" data-entity-1="Iterator" data-entity-2="Primes" data-uid="lnk17" id="link_Iterator_Primes"><polygon fill="none" points="698.6796,164.3895,713.2731,176.515,717.6297,165.3338,698.6796,164.3895" style="stroke:#181818;stroke-width:1;"/><path d="M715.4514,170.9244 C748.921,183.9653 766.1697,193.2455 796,212 C829.5749,233.1088 861.755,262.6752 887.7912,289.8739" fill="none" style="stroke:#181818;stroke-width:1;stroke-dasharray:7,7;"/></g><g class="link" data-entity-1="Predicate" data-entity-2="StringEndsWith" data-uid="lnk18" id="link_Predicate_StringEndsWith"><polygon fill="none" points="1392.0621,196.0584,1389.4937,214.8575,1401.2868,212.6387,1392.0621,196.0584" style="stroke:#181818;stroke-width:1;"/><path d="M1395.3902,213.7481 C1402.36,250.7941 1407.1102,276.0422 1413.2639,308.7506" fill="none" style="stroke:#181818;stroke-width:1;stroke-dasharray:7,7;"/></g><g class="link" data-entity-1="Iterable" data-entity-2="ArrayIntSet" data-uid="lnk19" id="link_Iterable_ArrayIntSet"><polygon fill="none" points="1668.3008,167.5534,1659.0761,184.1337,1670.8692,186.3524,1668.3008,167.5534" style="stroke:#181818;stroke-width:1;"/><path d="M1664.9727,185.243 C1660.8738,207.0293 1659.2444,215.6899 1654.3279,241.8223" fill="none" style="stroke:#181818;stroke-width:1;stroke-dasharray:7,7;"/></g><g class="link" data-entity-1="Iterator" data-entity-2="IntGenerator" data-uid="lnk20" id="link_Iterator_IntGenerator"><polygon fill="none" points="532,177.067,526,195.067,538,195.067,532,177.067" style="stroke:#181818;stroke-width:1;"/><path d="M532,195.067 C532,226.326 532,246.7758 532,280.3847" fill="none" style="stroke:#181818;stroke-width:1;stroke-dasharray:7,7;"/></g><g class="footer" data-source-line="107"><text fill="#888888" font-family="sans-serif" font-size="10" lengthAdjust="spacing" textLength="2.6" x="903.2" y="501.69">&#160;</text><a href="https://github.com/talsma-ict/umldoclet" target="_top" title="https://github.com/talsma-ict/umldoclet" xlink:actuate="onRequest" xlink:href="https://github.com/talsma-ict/umldoclet" xlink:show="new" xlink:title="https://github.com/talsma-ict/umldoclet" xlink:type="simple"><text fill="#888888" font-family="sans-serif" font-size="10" lengthAdjust="spacing" textLength="76.7199" x="866.14" y="515.31">UMLDoclet 2.2.3</text></a></g><!--SRC=[hLTjRzis4FxUNy5X7wOWiMIxSRe9NWhFTLiFQHiaAeR1CmPQEijiA58bAIzkb_- -qujjIPQI9OW_93Rl-DpTStSyaX12VY9Z6MyK2rU664dCYcdo-SC5eI8W8GXGr410M4H3q6G1N8fGvuf0Q69MKX6vp7xvKYdGiHG14o7vdQufqJ9HFcZxnGkIcVAswFzGNK9VRDB5DzBdO8WrFYgvrE_spZhzRdz0FCfrHCbqxDa5sdvFt-xRBmbYS-Q3q0YPY01KvjOefZx-kyWb9sGDIZCfS4-tm4b3zQKmb0bDOggCJaEwv5IOrDUUdTgtNn5hT7rHzQtxI-RR2HafGPE0NCcloIxS7s95G_IOqurC3D4H62fe9jBeimOqHGtovxhv1dJq1cacpDY9O16p0sR7IePzUzLxIRxdIkd7vrHhyfPn0mg2QwEGyAc176qsQnROAnFn-HnnIEdJaHWB4vIxPAiupFUTL_LY16G-fiibbzklpPe2RerBSb55Sjpic5KtV79euQWAjABw8rgnZbooa9835LMvA8Gr9-xg55ug5c5PpsRvbnQAV2mG5cIXCs6gigN4IijtkrXZsWodma08wlnH7dUOViFMJBC5XzysexSxL0ijFXHbOR4zp6RUnvo1CAtraekRAVck3JNCloF74JQDbM-SpT6NjMH1koEvuaG4-WzcLcYwkj32lqwMItRRN59LWCAJMhKOq6OhEQJomCcHKdI3d5w3sL5qiFQyl9JWgyOUCDEPVfnwqz75t-FHvMWyzVvig53WEbkTpMkiiczD1StmuBpzj2pghYu-nYCIb2cabQ0oiO98hg5LpFHKt5VHgKzMarb_9QLk5h7jCN9KEi8Ecl20SjHubm-WxCmi_smfmySI6TmsU5ksOsLW9wdI4y-tbiw_gywJBpYAxSGmNee8RO9QKX_sd4tEaOULCR5s7IUGlhQbeZXURLz63WWdXSd-Q73wWqp3eJ7Bbkn5kffff8QSoj1vpNG77GQSaVnNen8uB6Ywq0QDcRi7Oo-hRccOD1PXOmKkfPhWVU0AqWR5vhJ6KkWa0ZLyJNGIuvrXSdxOhlUHQYyJuPlqHj74xdwIUSz8xzQaiuD_0j7PiUYrbHZEF6ll_9OSBoMd75EzBaDSjkxLmRf_BEx-M6LwyZMXtFgq-0A- -NzxX3IFijYURhmHXkqzXAFxkPAS6dAse4z8RUEPM4z4qGg77U2TDxQEZdaPzth_ivMzNPEuxkv-ElpNjfklkAxRV1Dv4bH-9wjktRLgAYuoVoz8zNQn1qlpK_Y12ReNeZJCdnH7UM3af0wrsN3OCxwK4e5grV1-WvcyOE9cB3bQ-F7dPkddz9d4cG1ycVat0d0mTckf73ebUuMjlyI-oaDa9bba1Mwo9rg7-SP98XxaRxFQAsq-BrvTxtRFl_G9rUdrElsUrpjrUsTkxzJkdmq6fzt1gxFZRi_jTcUJHCaOd2iPmVm_]--></g></svg>