<svg xmlns="http://www.w3.org/2000/svg" xmlns:xlink="http://www.w3.org/1999/xlink" contentStyleType="text/css" data-diagram-type="CLASS" height="263px" preserveAspectRatio="none" style="width:188px;height:263px;background:#FFFFFF;" version="1.1" viewBox="0 0 188 263" width="188px" zoomAndPan="magnify"><defs/><g><!--class it.unimi.di.prog2.h13.StringEndsWith--><g class="entity" data-entity="it.unimi.di.prog2.h13.StringEndsWith" data-source-line="13" data-uid="ent0002" id="entity_it.unimi.di.prog2.h13.StringEndsWith"><a href="StringEndsWith.html" target="_top" title="StringEndsWith.html" xlink:actuate="onRequest" xlink:href="StringEndsWith.html" xlink:show="new" xlink:title="StringEndsWith.html" xlink:type="simple"><rect fill="#F1F1F1" height="115.8917" rx="2.5" ry="2.5" style="stroke:#181818;stroke-width:0.5;" width="175.2814" x="6" y="118"/><ellipse cx="39.8081" cy="139.344" fill="#ADD1B2" rx="11" ry="11" style="stroke:#181818;stroke-width:1;"/><path d="M42.7769,144.9846 Q42.1987,145.2815 41.5581,145.4221 Q40.9175,145.5783 40.2144,145.5783 Q37.7144,145.5783 36.3862,143.9377 Q35.0737,142.2815 35.0737,139.1565 Q35.0737,136.0315 36.3862,134.3752 Q37.7144,132.719 40.2144,132.719 Q40.9175,132.719 41.5581,132.8752 Q42.2144,133.0315 42.7769,133.3283 L42.7769,136.0471 Q42.1519,135.469 41.5581,135.2033 Q40.9644,134.9221 40.3394,134.9221 Q38.9956,134.9221 38.3081,136.0002 Q37.6206,137.0627 37.6206,139.1565 Q37.6206,141.2502 38.3081,142.3283 Q38.9956,143.3908 40.3394,143.3908 Q40.9644,143.3908 41.5581,143.1252 Q42.1519,142.844 42.7769,142.2658 L42.7769,144.9846 Z " fill="#000000"/><text fill="#000000" font-family="sans-serif" font-size="14" lengthAdjust="spacing" textLength="101.4856" x="57.9877" y="137.9659">StringEndsWith</text><text fill="#000000" font-family="sans-serif" font-size="10" lengthAdjust="spacing" textLength="98.3299" x="59.5656" y="152.7579">it.unimi.di.prog2.h13</text><line style="stroke:#181818;stroke-width:0.5;" x1="7" x2="180.2814" y1="160.6879" y2="160.6879"/><rect fill="none" height="6" style="stroke:#C82930;stroke-width:1;" width="6" x="14" y="172.7219"/><text fill="#000000" font-family="sans-serif" font-size="14" lengthAdjust="spacing" textLength="82.7957" x="26" y="179.6538">suffix: String</text><line style="stroke:#181818;stroke-width:0.5;" x1="7" x2="180.2814" y1="187.7558" y2="187.7558"/><ellipse cx="17" cy="202.7898" fill="#84BE84" rx="3" ry="3" style="stroke:#038048;stroke-width:1;"/><text fill="#000000" font-family="sans-serif" font-size="14" lengthAdjust="spacing" textLength="149.2814" x="26" y="206.7218">StringEndsWith(String)</text><ellipse cx="17" cy="221.8577" fill="#84BE84" rx="3" ry="3" style="stroke:#038048;stroke-width:1;"/><text fill="#000000" font-family="sans-serif" font-size="14" lengthAdjust="spacing" textLength="133.4615" x="26" y="225.7897">test(String): boolean</text></a></g><!--class java.util.function.Predicate--><g class="entity" data-entity="java.util.function.Predicate" data-source-line="19" data-uid="ent0003" id="entity_java.util.function.Predicate"><a href="https://docs.oracle.com/en/java/javase/25/docs/api/java.base/java/util/function/Predicate.html?is-external=true" target="_top" title="https://docs.oracle.com/en/java/javase/25/docs/api/java.base/java/util/function/Predicate.html?is-external=true" xlink:actuate="onRequest" xlink:href="https://docs.oracle.com/en/java/javase/25/docs/api/java.base/java/util/function/Predicate.html?is-external=true" xlink:show="new" xlink:title="https://docs.oracle.com/en/java/javase/25/docs/api/java.base/java/util/function/Predicate.html?is-external=true" xlink:type="simple"><rect fill="#F1F1F1" height="69.7558" rx="2.5" ry="2.5" style="stroke:#181818;stroke-width:0.5;" width="151.3135" x="18" y="12"/><ellipse cx="37.0011" cy="33.344" fill="#B4A7E5" rx="11" ry="11" style="stroke:#181818;stroke-width:1;"/><path d="M32.923,29.1096 L32.923,26.9533 L40.3136,26.9533 L40.3136,29.1096 L37.8449,29.1096 L37.8449,37.1877 L40.3136,37.1877 L40.3136,39.344 L32.923,39.344 L32.923,37.1877 L35.3917,37.1877 L35.3917,29.1096 L32.923,29.1096 Z " fill="#000000"/><text fill="#000000" font-family="sans-serif" font-size="14" font-style="italic" lengthAdjust="spacing" textLength="58.1418" x="60.1243" y="31.9659">Predicate</text><text fill="#000000" font-family="sans-serif" font-size="10" font-style="italic" lengthAdjust="spacing" textLength="74.6099" x="51.8903" y="46.7579">java.util.function</text><rect fill="#FFFFFF" height="18.3441" style="stroke:#181818;stroke-width:1;stroke-dasharray:2,2;" width="33.8122" x="138.5013" y="9"/><text fill="#000000" font-family="sans-serif" font-size="12" font-style="italic" lengthAdjust="spacing" textLength="31.8122" x="139.5013" y="22.8281">String</text><line style="stroke:#181818;stroke-width:0.5;" x1="19" x2="168.3135" y1="54.6879" y2="54.6879"/><ellipse cx="29" cy="69.7219" fill="#84BE84" rx="3" ry="3" style="stroke:#038048;stroke-width:1;"/><text fill="#000000" font-family="sans-serif" font-size="14" font-style="italic" lengthAdjust="spacing" textLength="125.3135" x="38" y="73.6538">test(String): boolean</text></a></g><g class="link" data-entity-1="java.util.function.Predicate" data-entity-2="it.unimi.di.prog2.h13.StringEndsWith" data-uid="lnk4" id="link_java.util.function.Predicate_it.unimi.di.prog2.h13.StringEndsWith"><polygon fill="none" points="93.5,82.0337,87.5,100.0337,99.5,100.0337,93.5,82.0337" style="stroke:#181818;stroke-width:1;"/><path d="M93.5,100.0337 C93.5,111.0548 93.5,105.5977 93.5,117.8246" fill="none" style="stroke:#181818;stroke-width:1;stroke-dasharray:7,7;"/></g><g class="footer" data-source-line="31"><text fill="#888888" font-family="sans-serif" font-size="10" lengthAdjust="spacing" textLength="2.6" x="88.7" y="238.69">&#160;</text><a href="https://github.com/talsma-ict/umldoclet" target="_top" title="https://github.com/talsma-ict/umldoclet" xlink:actuate="onRequest" xlink:href="https://github.com/talsma-ict/umldoclet" xlink:show="new" xlink:title="https://github.com/talsma-ict/umldoclet" xlink:type="simple"><text fill="#888888" font-family="sans-serif" font-size="10" lengthAdjust="spacing" textLength="76.7199" x="51.64" y="252.31">UMLDoclet 2.2.3</text></a></g><!--SRC=[ZLHDJzj04BtpAwRqK11a_G61OgMfK8hweLH24DG3vB2n9_QMzQxP7LDIod_lUXrCGb653udyPlQzDxCp1W1u1oDTBOp82mBIG8MmSF5z35nbaAD2mmap42NFqS8CfLQvRHCHU4s5Dg3d_YtLng2jjCg4ok4Rl-LWTMrIj6nZ0xpKv97z5xShxBD50txIgKI2hT7sYgKuZ0vwSHZtOSAbBJby7KtOaktfJCnYjWUEMueKbNMKjShGU5l75K_TtxYDxC8j6YkqScV29KzJQgeLSQ4iLDoGRKewbLnHupLYZJuxXAtZy_6wj_38Uzk5OwDudS6PlgcxSjzKXkVEiUGBNHFO4eahtiQiCwruwTh5Kpn79yh9TL9fXJvUY0m1oueMC1SeC_iSTMI5Th37KycjXSs15RynYVQ7vsJS5PoepFuGL5ofPI0S2cAr4gLWcM2LqNdCYcXl4znbl1XXwqHmURaEi89AEPt2lNVHF3rRp-VYBe4siSDtrWzkjQ_RJt52Iuze0ZEj9NBbmmzjZK8HchdhragTfmOpaReHMYdnfvixLfEGR5whbDnD-_h-XLbtUj3g3brz1L5bao38T6gPDjnD5qjr6Q0A6WR_Op68-puZu9Nm49irgCzeD897ZQ3JyAtwA6mFxrmTYiiFP6fSwzqzdrboalJmYdRyhnuO_67iLJVQSWqiBIGEEoDphPt75MVDysLHeHaBTJtIqatgs_SlHo-QlPD2eLlrz5gXcykmotnevO8LlQNMbNhgVUwCrJFVTl8xtnCf1NKfitRPdwtzTBfSuy_TzwJPoLuKzU9e4kqdqK4IzLbq5EqV7KRzmvqmIiBmygGskiBWJ9Su_Gi0]--></g></svg>